<?xml version="1.0" encoding="UTF-8"?>
<svg version="1.1" xmlns="http://www.w3.org/2000/svg" width="905" height="276">
<path d="M0 0 C30.48799294 -1.58608056 62.66886071 12.04550602 86 31 C86.94488281 31.7425 87.88976562 32.485 88.86328125 33.25 C97.60064099 40.21088411 105.10734697 47.52169004 111.75 56.5 C112.19794922 57.10473145 112.64589844 57.70946289 113.10742188 58.33251953 C154.39817066 115.62113273 122 199.38193477 122 270 C-176.65 270 -475.3 270 -783 270 C-783 212.25 -783 154.5 -783 95 C-780.03 95.33 -777.06 95.66 -774 96 C-737.59998458 98.10597807 -703.58096974 89.04912156 -675.9375 64.625 C-669.47656463 58.66658182 -663.13110031 52.57875521 -657.4375 45.875 C-647.44505735 34.32559536 -634.93455057 25.40206579 -619.44140625 23.72265625 C-610.07900663 23.35750806 -602.24620068 25.88183785 -595.0859375 31.94921875 C-586.19524353 40.69006956 -581.49226716 52.75699103 -576.69921875 64.0703125 C-574.18638888 69.71770334 -571.42942172 72.59761058 -566.40625 76.1640625 C-559.78734057 81.21420443 -554.67164969 87.56327642 -551.36328125 95.1875 C-548.80724231 98.58578673 -544.88265461 98.85307501 -540.87890625 99.51953125 C-525.03384186 100.91927192 -510.63538301 97.26901061 -497.8984375 87.66015625 C-494.89864479 84.90697722 -492.59559645 82.09118522 -490.1875 78.8125 C-483.4150646 69.80350848 -476.87362212 61.74210648 -467 56 C-466 59 -466 59 -467 62 C-467.62301048 69.87149778 -466.74583362 76.61240001 -464 84 C-463.15695312 84.06058594 -462.31390625 84.12117188 -461.4453125 84.18359375 C-459.80175781 84.30927734 -459.80175781 84.30927734 -458.125 84.4375 C-457.03445313 84.51871094 -455.94390625 84.59992188 -454.8203125 84.68359375 C-452 85 -452 85 -450 86 C-451.20381448 88.49361571 -452.45428722 90.68143083 -454 93 C-452.730447 93.64834654 -451.45930294 94.29357815 -450.1875 94.9375 C-449.12595703 95.47697266 -449.12595703 95.47697266 -448.04296875 96.02734375 C-440.97584161 99.39199893 -432.10994814 99.06078523 -424.625 97.12890625 C-410.65298004 91.69336277 -405.93054672 82.96559258 -400 70 C-395.37080847 59.93066368 -390.11708779 51.43549913 -383 43 C-382.46117187 42.34644531 -381.92234375 41.69289062 -381.3671875 41.01953125 C-365.38856298 23.40958119 -340.01875055 14.16513 -317 12 C-315.00018935 11.97247967 -312.99967347 11.96386132 -311 12 C-310.67 12.66 -310.34 13.32 -310 14 C-310.70125 14.44988281 -311.4025 14.89976563 -312.125 15.36328125 C-324.60278578 23.82308438 -331.82187951 35.02814828 -334.68359375 49.80078125 C-336.44900965 62.07151155 -333.37933906 74.04557908 -326 84 C-325.1646875 84.81597656 -325.1646875 84.81597656 -324.3125 85.6484375 C-323 87 -323 87 -323 89 C-322.44183594 89.268125 -321.88367188 89.53625 -321.30859375 89.8125 C-317.93826381 91.54613841 -314.75747952 93.57033723 -311.53515625 95.5625 C-309.07765361 96.95596837 -306.64447595 98.01600895 -304 99 C-304 96.36 -304 93.72 -304 91 C-303.34 90.67 -302.68 90.34 -302 90 C-301.37351562 91.299375 -301.37351562 91.299375 -300.734375 92.625 C-297.04926274 99.06853954 -297.04926274 99.06853954 -290.8203125 102.6328125 C-276.57032947 104.43135405 -261.41435009 100.76075759 -250 92 C-243.15115284 85.81585898 -238.09913104 78.37381387 -237.5 68.9375 C-238.37855132 62.01890834 -240.32968048 56.91942594 -245.9375 52.5625 C-248.82729915 50.61256076 -251.65250021 49.04609368 -255 48 C-254 46 -254 46 -252.27734375 45.26171875 C-237.79896468 41.708594 -224.25531693 47.76678825 -212 55 C-207.48405578 57.75892866 -203.0060444 60.57780488 -198.5324707 63.40478516 C-186.52445631 70.92186209 -174.79387562 76.0465843 -160.34375 73.5390625 C-150.32815771 70.91151514 -143.39805354 64.74153873 -138.1875 55.9375 C-135.57356169 49.16229207 -135.89704504 40.79079789 -138.625 34.125 C-142.54620703 26.63905931 -147.64999763 22.04809775 -155 18 C-153.15322564 15.53763418 -152.19336146 15.0312714 -149.1015625 14.53125 C-133.10101273 14.38742483 -121.35122237 20.73276952 -110 31.625 C-104.91724097 36.86684382 -100.57727408 42.56895517 -96.20703125 48.39941406 C-83.29177922 65.52570701 -69.59265431 76.73941463 -48.00195312 80.10839844 C-27.97872288 82.69417983 -8.5359999 79.28293141 11 75 C11.7955127 74.8261377 12.59102539 74.65227539 13.41064453 74.47314453 C16.95115505 73.69115634 20.48156202 72.87604832 24 72 C25.3006394 48.15494439 14.69171513 23.28072341 0.08203125 4.8125 C-0.27503906 4.214375 -0.63210938 3.61625 -1 3 C-0.67 2.01 -0.34 1.02 0 0 Z " fill="#11A1DA" transform="translate(783,6)"/>
<path d="M0 0 C0.33 0.66 0.66 1.32 1 2 C0.29875 2.44988281 -0.4025 2.89976563 -1.125 3.36328125 C-13.60278578 11.82308438 -20.82187951 23.02814828 -23.68359375 37.80078125 C-25.44900965 50.07151155 -22.37933906 62.04557908 -15 72 C-14.1646875 72.81597656 -14.1646875 72.81597656 -13.3125 73.6484375 C-12 75 -12 75 -12 77 C-11.44183594 77.268125 -10.88367188 77.53625 -10.30859375 77.8125 C-6.93826381 79.54613841 -3.75747952 81.57033723 -0.53515625 83.5625 C1.92234639 84.95596837 4.35552405 86.01600895 7 87 C7 84.36 7 81.72 7 79 C7.66 78.67 8.32 78.34 9 78 C9.99 79.32 10.98 80.64 12 82 C11.67 82.66 11.34 83.32 11 84 C10.67 83.67 10.34 83.34 10 83 C9.82984375 83.61746094 9.6596875 84.23492187 9.484375 84.87109375 C6.85345296 94.06532663 3.29633242 102.03379509 -2 110 C-5.52871778 109.38387467 -7.61138193 107.97140639 -10.4375 105.8125 C-16.25382135 101.62852881 -22.4221316 98.78622146 -29 96 C-29.68578125 95.69191406 -30.3715625 95.38382812 -31.078125 95.06640625 C-45.57606733 88.98357393 -64.66420702 87.58444066 -80 91 C-78.96101563 91.43570313 -77.92203125 91.87140625 -76.8515625 92.3203125 C-61.22648294 98.95027178 -44.90306768 107.01586761 -37 123 C-36.64421875 123.66902344 -36.2884375 124.33804688 -35.921875 125.02734375 C-31.70530777 134.05008294 -33.80900812 145.07282033 -37 154 C-37.66 154 -38.32 154 -39 154 C-39.165 154.680625 -39.33 155.36125 -39.5 156.0625 C-43.41436124 163.7281241 -52.20776441 168.98895256 -60.16015625 171.75 C-73.46400423 175.03602763 -88.73547724 174.41433801 -100.625 167.4375 C-102.6015625 166.18359375 -102.6015625 166.18359375 -104 165 C-104 164.34 -104 163.68 -104 163 C-104.99 162.67 -105.98 162.34 -107 162 C-108.68359375 159.92578125 -108.68359375 159.92578125 -110.4375 157.3125 C-111.0459375 156.41144531 -111.654375 155.51039063 -112.28125 154.58203125 C-113.13203125 153.30392578 -113.13203125 153.30392578 -114 152 C-114.4434375 151.36449219 -114.886875 150.72898438 -115.34375 150.07421875 C-118 146.25111607 -118 146.25111607 -118 144 C-118.66 144 -119.32 144 -120 144 C-120.350625 143.278125 -120.70125 142.55625 -121.0625 141.8125 C-124.48796676 136.84004825 -129.77182986 134.50817916 -135.5625 133.1875 C-136.366875 133.125625 -137.17125 133.06375 -138 133 C-136.824375 134.11375 -136.824375 134.11375 -135.625 135.25 C-130.77384611 140.33216122 -130.62954279 144.15227926 -130.73828125 151.01953125 C-131.08769415 154.99866617 -132.10407683 157.49983415 -134 161 C-134.2475 161.70125 -134.495 162.4025 -134.75 163.125 C-138.48571595 168.72857392 -145.85530188 171.9340075 -152.171875 173.55859375 C-163.92041352 175.39227449 -176.57687913 175.29730452 -186.5234375 168.19921875 C-193.55472148 162.33981543 -196.53342692 156.96745452 -198.8125 148.25 C-200.72935607 141.19656867 -203.63816808 135.82814988 -208 130 C-208.52335937 129.29359375 -209.04671875 128.5871875 -209.5859375 127.859375 C-217.60373955 117.92512271 -228.76434673 111.63594866 -240 106 C-239.60167969 106.42410156 -239.20335937 106.84820312 -238.79296875 107.28515625 C-232.30939608 114.46283402 -230.32030584 120.03039226 -230.59765625 129.7265625 C-231.7554618 139.14637849 -237.95624621 146.9523326 -245 153 C-260.236294 162.61228198 -275.88747924 165.1873396 -293.50634766 165.18530273 C-295.59949581 165.18747355 -297.69210197 165.20563537 -299.78515625 165.22460938 C-311.29372826 165.27341551 -322.46839825 164.14664381 -333.625 161.1875 C-334.95820999 160.83937103 -336.2915503 160.49174091 -337.625 160.14453125 C-338.32109375 159.96100098 -339.0171875 159.7774707 -339.734375 159.58837891 C-342.23496606 158.93897972 -344.7413665 158.31680567 -347.25 157.69921875 C-348.14251465 157.47919189 -349.0350293 157.25916504 -349.95458984 157.0324707 C-351.69423678 156.60415939 -353.43413381 156.17686218 -355.17431641 155.75073242 C-359.52585761 154.67094444 -363.75048962 153.43767403 -368 152 C-403.60406019 142.25032942 -438.25282898 139.12641449 -472 156 C-472 131.91 -472 107.82 -472 83 C-469.03 83.33 -466.06 83.66 -463 84 C-426.59998458 86.10597807 -392.58096974 77.04912156 -364.9375 52.625 C-358.47656463 46.66658182 -352.13110031 40.57875521 -346.4375 33.875 C-336.44505735 22.32559536 -323.93455057 13.40206579 -308.44140625 11.72265625 C-299.07900663 11.35750806 -291.24620068 13.88183785 -284.0859375 19.94921875 C-275.19524353 28.69006956 -270.49226716 40.75699103 -265.69921875 52.0703125 C-263.18638888 57.71770334 -260.42942172 60.59761058 -255.40625 64.1640625 C-248.78734057 69.21420443 -243.67164969 75.56327642 -240.36328125 83.1875 C-237.80724231 86.58578673 -233.88265461 86.85307501 -229.87890625 87.51953125 C-214.03384186 88.91927192 -199.63538301 85.26901061 -186.8984375 75.66015625 C-183.89864479 72.90697722 -181.59559645 70.09118522 -179.1875 66.8125 C-172.4150646 57.80350848 -165.87362212 49.74210648 -156 44 C-155 47 -155 47 -156 50 C-156.62301048 57.87149778 -155.74583362 64.61240001 -153 72 C-152.15695312 72.06058594 -151.31390625 72.12117188 -150.4453125 72.18359375 C-148.80175781 72.30927734 -148.80175781 72.30927734 -147.125 72.4375 C-146.03445313 72.51871094 -144.94390625 72.59992188 -143.8203125 72.68359375 C-141 73 -141 73 -139 74 C-140.20381448 76.49361571 -141.45428722 78.68143083 -143 81 C-141.730447 81.64834654 -140.45930294 82.29357815 -139.1875 82.9375 C-138.12595703 83.47697266 -138.12595703 83.47697266 -137.04296875 84.02734375 C-129.97584161 87.39199893 -121.10994814 87.06078523 -113.625 85.12890625 C-99.65298004 79.69336277 -94.93054672 70.96559258 -89 58 C-84.37080847 47.93066368 -79.11708779 39.43549913 -72 31 C-71.19175781 30.01966797 -71.19175781 30.01966797 -70.3671875 29.01953125 C-53.45689008 10.38278985 -24.66031354 -0.44566832 0 0 Z " fill="#3ABBED" transform="translate(472,18)"/>
<path d="M0 0 C30.48799294 -1.58608056 62.66886071 12.04550602 86 31 C87.41732422 32.11375 87.41732422 32.11375 88.86328125 33.25 C97.60064099 40.21088411 105.10734697 47.52169004 111.75 56.5 C112.42192383 57.40709717 112.42192383 57.40709717 113.10742188 58.33251953 C114.44960354 60.19472181 115.72405716 62.09185255 117 64 C117.43743625 64.61367148 117.87487249 65.22734297 118.32556438 65.85961056 C122.71111339 72.67117085 122.68011388 78.85078765 122.56762695 86.78149414 C122.56621406 88.15226184 122.56701317 89.52303331 122.56983948 90.89379883 C122.57126568 94.58976644 122.54200715 98.28491168 122.50696969 101.98068929 C122.47557182 105.852353 122.47276493 109.72403855 122.46684265 113.59580994 C122.45134341 120.91617116 122.41036866 128.23615607 122.3600952 135.55635208 C122.30407905 143.89492197 122.27668451 152.23351047 122.25161803 160.57222188 C122.19944881 177.71503173 122.11158359 194.85747599 122 212 C114.10207634 210.9969052 108.04728259 208.36804918 102.625 202.375 C101.820625 201.199375 101.820625 201.199375 101 200 C100.360625 199.4225 99.72125 198.845 99.0625 198.25 C93.27732942 191.93890482 90.18174498 183.23306586 86.63671875 175.5234375 C85.38912623 172.8376894 84.10698076 170.19327496 82.75 167.5625 C81.48157834 164.98035591 80.52753374 162.6920403 79.625 160 C78.19724933 155.96401208 75.90311969 152.95709509 73.20703125 149.6640625 C72 148 72 148 72 146 C71.01 145.67 70.02 145.34 69 145 C67.6328125 143.50390625 67.6328125 143.50390625 66.125 141.5625 C62.03901167 136.71855648 57.24186589 133.14647894 52.18359375 129.39453125 C49 127 49 127 46.1015625 124.45703125 C42.5649109 121.65532614 38.99707749 119.79297032 34.9375 117.875 C33.54987895 117.20760195 32.16313824 116.53837002 30.77734375 115.8671875 C30.11992188 115.55048096 29.4625 115.23377441 28.78515625 114.9074707 C27 114 27 114 24.49609375 112.41015625 C21.19869962 110.54730918 17.75019583 109.57022888 14.125 108.5625 C12.99626465 108.24273193 12.99626465 108.24273193 11.84472656 107.91650391 C10.29942382 107.48060761 8.75319552 107.04797903 7.20605469 106.61865234 C5.22800719 106.06394093 3.25791537 105.48104216 1.2890625 104.89453125 C-18.00067635 99.3375535 -37.01707074 98.53671725 -57 99 C-55.5459375 99.12955078 -55.5459375 99.12955078 -54.0625 99.26171875 C-40.60573475 100.60790391 -28.57603361 103.83886548 -16.5625 110.125 C-15.59461548 110.62990967 -15.59461548 110.62990967 -14.60717773 111.14501953 C-10.12810516 113.61568451 -10.12810516 113.61568451 -9 117 C-14.27862685 120.03240266 -19.62986682 121.95428546 -25.4375 123.6875 C-26.49215454 124.00883911 -26.49215454 124.00883911 -27.56811523 124.33666992 C-53.20975593 131.76135273 -80.07139233 126.37218153 -103 114 C-105.80687375 112.43628203 -108.37436299 110.85982622 -111 109 C-111 108.34 -111 107.68 -111 107 C-111.556875 106.7525 -112.11375 106.505 -112.6875 106.25 C-126.04572805 99.02933619 -136.65818024 81.77627202 -142 68 C-142.21914063 68.65484375 -142.43828125 69.3096875 -142.6640625 69.984375 C-145.21009479 77.31198012 -148.40411827 84.1318659 -152 91 C-152.66 91 -153.32 91 -154 91 C-154.33 92.32 -154.66 93.64 -155 95 C-159.21812418 94.37485884 -163.17144461 93.42387367 -167.25 92.1875 C-169.16968543 91.64498021 -171.08943254 91.1026573 -173.01074219 90.56591797 C-174.9435126 90.01606993 -176.86654348 89.43233987 -178.7890625 88.84765625 C-193.84805559 84.64253816 -209.51294803 85.6292917 -225 86 C-217.6691174 88.71213396 -217.6691174 88.71213396 -210.25 91.16796875 C-201.54095056 93.90001431 -195.69616373 97.88513929 -189 104 C-187.859396 104.90248208 -186.71459116 105.799729 -185.5625 106.6875 C-182.72366009 109.24937992 -180.79654692 111.62249178 -179 115 C-178.9453125 116.94921875 -178.9453125 116.94921875 -180 119 C-182.44955024 120.45377408 -184.72126363 121.62042456 -187.3125 122.75 C-187.98990234 123.06582031 -188.66730469 123.38164062 -189.36523438 123.70703125 C-192.85795152 125.28438738 -195.11173798 126 -199 126 C-199 126.66 -199 127.32 -199 128 C-215.22510021 131.80700675 -231.61988873 132.54828023 -248 129 C-249.35738281 128.70802734 -249.35738281 128.70802734 -250.7421875 128.41015625 C-260.60031508 125.99562935 -270.84394337 122.10778825 -279 116 C-279 115.34 -279 114.68 -279 114 C-279.84304688 113.87431641 -279.84304688 113.87431641 -280.703125 113.74609375 C-283.70483195 112.77104948 -285.41556318 111.17188491 -287.75 109.0625 C-288.54921875 108.35222656 -289.3484375 107.64195313 -290.171875 106.91015625 C-292 105 -292 105 -292 103 C-290.77925781 102.97421875 -289.55851562 102.9484375 -288.30078125 102.921875 C-272.14563361 102.42983169 -257.29280247 99.93350645 -245.625 87.75 C-241.06511679 82.25783298 -237.95804979 76.15178423 -237.5 68.9375 C-238.37855132 62.01890834 -240.32968048 56.91942594 -245.9375 52.5625 C-248.82729915 50.61256076 -251.65250021 49.04609368 -255 48 C-254 46 -254 46 -252.27734375 45.26171875 C-237.79896468 41.708594 -224.25531693 47.76678825 -212 55 C-207.48405578 57.75892866 -203.0060444 60.57780488 -198.5324707 63.40478516 C-186.52445631 70.92186209 -174.79387562 76.0465843 -160.34375 73.5390625 C-150.32815771 70.91151514 -143.39805354 64.74153873 -138.1875 55.9375 C-135.57356169 49.16229207 -135.89704504 40.79079789 -138.625 34.125 C-142.54620703 26.63905931 -147.64999763 22.04809775 -155 18 C-153.15322564 15.53763418 -152.19336146 15.0312714 -149.1015625 14.53125 C-133.10101273 14.38742483 -121.35122237 20.73276952 -110 31.625 C-104.91724097 36.86684382 -100.57727408 42.56895517 -96.20703125 48.39941406 C-83.29177922 65.52570701 -69.59265431 76.73941463 -48.00195312 80.10839844 C-27.97872288 82.69417983 -8.5359999 79.28293141 11 75 C11.7955127 74.8261377 12.59102539 74.65227539 13.41064453 74.47314453 C16.95115505 73.69115634 20.48156202 72.87604832 24 72 C25.3006394 48.15494439 14.69171513 23.28072341 0.08203125 4.8125 C-0.27503906 4.214375 -0.63210938 3.61625 -1 3 C-0.67 2.01 -0.34 1.02 0 0 Z " fill="#3ABCED" transform="translate(783,6)"/>
<path d="M0 0 C18.68720689 4.74562252 30.68985255 18.58644713 41.79296875 33.39941406 C54.70822078 50.52570701 68.40734569 61.73941463 89.99804688 65.10839844 C110.04834608 67.69767549 129.43043187 64.21924967 149 60 C150.58573228 59.66699005 152.17164673 59.33484531 153.7578125 59.00390625 C156.84264751 58.3526633 159.92321808 57.68808032 163 57 C161.85395872 65.64350763 160.58883853 74.05171426 155 81 C154.45601562 81.79019531 153.91203125 82.58039063 153.3515625 83.39453125 C148.64503205 89.64749313 148.64503205 89.64749313 144.703125 90.4921875 C141.69283931 90.27716709 138.94025462 89.69441497 136 89 C134.47475643 88.67719533 132.94864062 88.35849615 131.421875 88.04296875 C128.96859905 87.53467137 126.51971166 87.01873123 124.0769043 86.4621582 C113.83151028 84.15595188 103.85415326 83.86156411 93.375 83.9375 C92.18003906 83.94201172 90.98507812 83.94652344 89.75390625 83.95117188 C86.83588353 83.96284397 83.91796963 83.97921674 81 84 C82.4540625 84.12955078 82.4540625 84.12955078 83.9375 84.26171875 C97.39426525 85.60790391 109.42396639 88.83886548 121.4375 95.125 C122.40538452 95.62990967 122.40538452 95.62990967 123.39282227 96.14501953 C127.87189484 98.61568451 127.87189484 98.61568451 129 102 C123.72137315 105.03240266 118.37013318 106.95428546 112.5625 108.6875 C111.50784546 109.00883911 111.50784546 109.00883911 110.43188477 109.33666992 C84.79024407 116.76135273 57.92860767 111.37218153 35 99 C32.19312625 97.43628203 29.62563701 95.85982622 27 94 C27 93.34 27 92.68 27 92 C26.443125 91.7525 25.88625 91.505 25.3125 91.25 C11.95427195 84.02933619 1.34181976 66.77627202 -4 53 C-4.32871094 53.98226562 -4.32871094 53.98226562 -4.6640625 54.984375 C-7.21009479 62.31198012 -10.40411827 69.1318659 -14 76 C-14.66 76 -15.32 76 -16 76 C-16.33 77.32 -16.66 78.64 -17 80 C-21.21812418 79.37485884 -25.17144461 78.42387367 -29.25 77.1875 C-31.16968543 76.64498021 -33.08943254 76.1026573 -35.01074219 75.56591797 C-36.9435126 75.01606993 -38.86654348 74.43233987 -40.7890625 73.84765625 C-55.84805559 69.64253816 -71.51294803 70.6292917 -87 71 C-79.6691174 73.71213396 -79.6691174 73.71213396 -72.25 76.16796875 C-63.54095056 78.90001431 -57.69616373 82.88513929 -51 89 C-49.859396 89.90248208 -48.71459116 90.799729 -47.5625 91.6875 C-44.72366009 94.24937992 -42.79654692 96.62249178 -41 100 C-40.9453125 101.94921875 -40.9453125 101.94921875 -42 104 C-44.44955024 105.45377408 -46.72126363 106.62042456 -49.3125 107.75 C-49.98990234 108.06582031 -50.66730469 108.38164062 -51.36523438 108.70703125 C-54.85795152 110.28438738 -57.11173798 111 -61 111 C-61 111.66 -61 112.32 -61 113 C-77.22510021 116.80700675 -93.61988873 117.54828023 -110 114 C-110.90492188 113.80535156 -111.80984375 113.61070312 -112.7421875 113.41015625 C-122.60031508 110.99562935 -132.84394337 107.10778825 -141 101 C-141 100.34 -141 99.68 -141 99 C-141.84304688 98.87431641 -141.84304688 98.87431641 -142.703125 98.74609375 C-145.70483195 97.77104948 -147.41556318 96.17188491 -149.75 94.0625 C-150.54921875 93.35222656 -151.3484375 92.64195313 -152.171875 91.91015625 C-154 90 -154 90 -154 88 C-152.77925781 87.97421875 -151.55851562 87.9484375 -150.30078125 87.921875 C-134.14563361 87.42983169 -119.29280247 84.93350645 -107.625 72.75 C-103.06511679 67.25783298 -99.95804979 61.15178423 -99.5 53.9375 C-100.37855132 47.01890834 -102.32968048 41.91942594 -107.9375 37.5625 C-110.82729915 35.61256076 -113.65250021 34.04609368 -117 33 C-116 31 -116 31 -114.27734375 30.26171875 C-99.79896468 26.708594 -86.25531693 32.76678825 -74 40 C-69.48405578 42.75892866 -65.0060444 45.57780488 -60.5324707 48.40478516 C-48.52445631 55.92186209 -36.79387562 61.0465843 -22.34375 58.5390625 C-12.32815771 55.91151514 -5.39805354 49.74153873 -0.1875 40.9375 C2.42643831 34.16229207 2.10295496 25.79079789 -0.625 19.125 C-4.54620703 11.63905931 -9.64999763 7.04809775 -17 3 C-13.06417132 -2.24777158 -5.83448126 -0.62384983 0 0 Z " fill="#80D4F5" transform="translate(645,21)"/>
<path d="M0 0 C11.49124837 9.73732098 18.1740516 25.71158364 22.3125 39.9375 C19.89442985 39.36748346 17.54331704 38.69957881 15.16796875 37.96484375 C1.27266229 33.83620637 -11.48895401 34.48721163 -25.6875 36.9375 C-25.6875 37.5975 -25.6875 38.2575 -25.6875 38.9375 C-26.49574219 39.32421875 -27.30398437 39.7109375 -28.13671875 40.109375 C-29.73966797 40.89054687 -29.73966797 40.89054687 -31.375 41.6875 C-32.43074219 42.19796875 -33.48648438 42.7084375 -34.57421875 43.234375 C-37.58567707 44.88179762 -40.02373323 46.79155829 -42.6875 48.9375 C-43.3475 48.9375 -44.0075 48.9375 -44.6875 48.9375 C-44.6875 49.5975 -44.6875 50.2575 -44.6875 50.9375 C-43.7284375 50.4425 -43.7284375 50.4425 -42.75 49.9375 C-36.32686324 47.84014922 -29.96595523 48.56827161 -23.6875 50.9375 C-17.02483839 54.60876252 -11.11953418 60.64139747 -8.6875 67.9375 C-7.62962834 77.68036741 -8.7892047 85.5942154 -14.60546875 93.56640625 C-23.31608506 103.91122668 -35.22217429 110.44293425 -48.6875 111.9375 C-70.62171659 113.09780444 -92.0274485 107.59175256 -112.1875 99.0625 C-117.29796224 96.97336967 -122.53532694 95.35713907 -127.8125 93.75 C-129.08383789 93.35675537 -129.08383789 93.35675537 -130.38085938 92.95556641 C-148.57958896 87.51086452 -168.05326028 88.15510011 -185.6875 94.9375 C-185.6875 85.0375 -185.6875 75.1375 -185.6875 64.9375 C-182.7175 65.2675 -179.7475 65.5975 -176.6875 65.9375 C-140.28748458 68.04347807 -106.26846974 58.98662156 -78.625 34.5625 C-72.16406463 28.60408182 -65.81860031 22.51625521 -60.125 15.8125 C-45.52595277 -1.0612825 -20.78533482 -14.93725756 0 0 Z " fill="#80D4F5" transform="translate(185.6875,36.0625)"/>
<path d="M0 0 C0.33 0.66 0.66 1.32 1 2 C0.29875 2.44988281 -0.4025 2.89976563 -1.125 3.36328125 C-13.60278578 11.82308438 -20.82187951 23.02814828 -23.68359375 37.80078125 C-25.44900965 50.07151155 -22.37933906 62.04557908 -15 72 C-14.443125 72.54398437 -13.88625 73.08796875 -13.3125 73.6484375 C-12 75 -12 75 -12 77 C-11.44183594 77.268125 -10.88367188 77.53625 -10.30859375 77.8125 C-6.93826381 79.54613841 -3.75747952 81.57033723 -0.53515625 83.5625 C1.92234639 84.95596837 4.35552405 86.01600895 7 87 C7 84.36 7 81.72 7 79 C7.66 78.67 8.32 78.34 9 78 C9.99 79.32 10.98 80.64 12 82 C11.67 82.66 11.34 83.32 11 84 C10.67 83.67 10.34 83.34 10 83 C9.82984375 83.61746094 9.6596875 84.23492187 9.484375 84.87109375 C6.85345296 94.06532663 3.29633242 102.03379509 -2 110 C-5.52871778 109.38387467 -7.61138193 107.97140639 -10.4375 105.8125 C-16.25382135 101.62852881 -22.4221316 98.78622146 -29 96 C-29.68578125 95.69191406 -30.3715625 95.38382812 -31.078125 95.06640625 C-45.57606733 88.98357393 -64.66420702 87.58444066 -80 91 C-78.44152344 91.65355469 -78.44152344 91.65355469 -76.8515625 92.3203125 C-62.02681668 98.61067798 -43.64167683 107.01951869 -37 123 C-36.62701407 124.65824316 -36.28502545 126.32439582 -36 128 C-52.15931446 128.7735842 -64.88192594 124.66666975 -77 114 C-82 108.89534884 -82 108.89534884 -82 106 C-82.66 106 -83.32 106 -84 106 C-84.99 102.535 -84.99 102.535 -86 99 C-86.66 99 -87.32 99 -88 99 C-87.94779297 99.85271484 -87.94779297 99.85271484 -87.89453125 100.72265625 C-87.66698531 107.21313332 -88.41476767 111.98389562 -92.8046875 117.10546875 C-98.78822194 123.30350726 -103.38870312 126.13655644 -111.890625 127.5703125 C-113.97726162 127.79334973 -113.97726162 127.79334973 -115 129 C-125.90955308 129.85565122 -135.51797611 128.79078665 -144.1796875 121.7421875 C-149.34922719 116.79451647 -153.52722106 111.24401557 -154.3359375 103.984375 C-154.41899154 97.10750008 -154.24120931 90.72039651 -150 85 C-148.66968089 84.32733865 -147.33657734 83.66013881 -146 83 C-145.67 82.01 -145.34 81.02 -145 80 C-144.31292969 80.34933594 -143.62585938 80.69867188 -142.91796875 81.05859375 C-142.01691406 81.51363281 -141.11585938 81.96867187 -140.1875 82.4375 C-139.29417969 82.88996094 -138.40085937 83.34242187 -137.48046875 83.80859375 C-130.2023412 87.3043873 -121.36222409 87.12589812 -113.625 85.12890625 C-99.65298004 79.69336277 -94.93054672 70.96559258 -89 58 C-84.37080847 47.93066368 -79.11708779 39.43549913 -72 31 C-71.46117187 30.34644531 -70.92234375 29.69289063 -70.3671875 29.01953125 C-53.45689008 10.38278985 -24.66031354 -0.44566832 0 0 Z " fill="#7FD4F5" transform="translate(472,18)"/>
<path d="M0 0 C1.13115234 0.07250977 1.13115234 0.07250977 2.28515625 0.14648438 C3.45111328 0.2305957 3.45111328 0.2305957 4.640625 0.31640625 C5.82978516 0.3947168 5.82978516 0.3947168 7.04296875 0.47460938 C8.99256497 0.60379949 10.94165386 0.7406059 12.890625 0.87890625 C12.32267358 6.42027006 12.32267358 6.42027006 10.3671875 8.49609375 C9.75617188 8.91117188 9.14515625 9.32625 8.515625 9.75390625 C3.48520533 13.77204435 2.26101572 17.62862362 1.54296875 23.9296875 C1.13859685 32.75328963 2.81074031 39.27707469 8.72265625 45.9453125 C13.07331107 50.05569447 17.18494629 52.16720264 22.890625 53.87890625 C23.49648438 54.06324219 24.10234375 54.24757812 24.7265625 54.4375 C27.59678887 55.02294329 30.33752093 55.04934271 33.265625 55.06640625 C34.36648438 55.08058594 35.46734375 55.09476563 36.6015625 55.109375 C40.02493167 54.86949521 42.69051947 54.08232622 45.890625 52.87890625 C46.880625 52.59015625 47.870625 52.30140625 48.890625 52.00390625 C55.57288041 49.49806047 61.24421068 45.04606081 64.890625 38.87890625 C66.0116177 34.56777575 66.55918896 30.31609077 66.890625 25.87890625 C67.550625 25.87890625 68.210625 25.87890625 68.890625 25.87890625 C69.880625 29.34390625 69.880625 29.34390625 70.890625 32.87890625 C71.550625 32.87890625 72.210625 32.87890625 72.890625 32.87890625 C73.83131115 34.32353141 74.76943754 35.76992048 75.69140625 37.2265625 C77.66914719 39.95159317 80.24568551 41.82772869 82.890625 43.87890625 C83.64601563 44.53246094 84.40140625 45.18601563 85.1796875 45.859375 C88.14158335 48.06585937 90.87374554 49.2766085 94.328125 50.56640625 C95.41996094 50.98277344 96.51179687 51.39914063 97.63671875 51.828125 C103.08379511 53.58714486 108.05900136 53.9996371 113.765625 53.94140625 C114.91804687 53.93238281 116.07046875 53.92335937 117.2578125 53.9140625 C118.56105469 53.89666016 118.56105469 53.89666016 119.890625 53.87890625 C121.57017902 63.53634185 121.20951175 71.59392547 117.890625 80.87890625 C117.230625 80.87890625 116.570625 80.87890625 115.890625 80.87890625 C115.725625 81.55953125 115.560625 82.24015625 115.390625 82.94140625 C111.47626376 90.60703035 102.68286059 95.86785881 94.73046875 98.62890625 C81.42662077 101.91493388 66.15514776 101.29324426 54.265625 94.31640625 C52.2890625 93.0625 52.2890625 93.0625 50.890625 91.87890625 C50.890625 91.21890625 50.890625 90.55890625 50.890625 89.87890625 C49.405625 89.38390625 49.405625 89.38390625 47.890625 88.87890625 C46.20703125 86.8046875 46.20703125 86.8046875 44.453125 84.19140625 C43.8446875 83.29035156 43.23625 82.38929688 42.609375 81.4609375 C42.0421875 80.60886719 41.475 79.75679688 40.890625 78.87890625 C40.4471875 78.24339844 40.00375 77.60789062 39.546875 76.953125 C36.890625 73.13002232 36.890625 73.13002232 36.890625 70.87890625 C36.230625 70.87890625 35.570625 70.87890625 34.890625 70.87890625 C34.54 70.15703125 34.189375 69.43515625 33.828125 68.69140625 C30.40265824 63.7189545 25.11879514 61.38708541 19.328125 60.06640625 C18.1215625 59.97359375 18.1215625 59.97359375 16.890625 59.87890625 C17.674375 60.62140625 18.458125 61.36390625 19.265625 62.12890625 C24.11677889 67.21106747 24.26108221 71.03118551 24.15234375 77.8984375 C23.80293085 81.87757242 22.78654817 84.3787404 20.890625 87.87890625 C20.519375 88.93078125 20.519375 88.93078125 20.140625 90.00390625 C16.40490905 95.60748017 9.03532312 98.81291375 2.71875 100.4375 C-9.02978852 102.27118074 -21.68625413 102.17621077 -31.6328125 95.078125 C-40.30467426 87.85157353 -43.67216877 79.49609928 -45.734375 68.56640625 C-44.8742298 64.86778189 -43.01005403 64.12127982 -39.921875 62.12890625 C-34.2920709 58.24628273 -33.04914887 52.10088933 -31.6875 45.78515625 C-31.01497243 41.24105104 -30.82303243 36.77681413 -30.671875 32.19140625 C-30.33832512 23.18202056 -29.21327509 16.03133297 -23.046875 9.06640625 C-17.070252 3.59430337 -8.21156808 -0.55987964 0 0 Z " fill="#3ABBED" transform="translate(317.109375,91.12109375)"/>
<path d="M0 0 C5.33374805 2.93356143 8.3491603 6.7974057 12.04296875 11.5859375 C15.16694891 15.43946991 18.21512767 18.40504256 23 20 C23 20.66 23 21.32 23 22 C23.66 22.2475 24.32 22.495 25 22.75 C28 24 28 24 31.5 25.8125 C54.30392386 37.34402968 78.1797231 37.88250141 103 34 C103 33.34 103 32.68 103 32 C103.61746094 31.75765625 104.23492188 31.5153125 104.87109375 31.265625 C109.27136349 29.52427016 113.65636022 27.75371249 118 25.875 C118.721875 25.56304687 119.44375 25.25109375 120.1875 24.9296875 C122.17937933 24.02491939 122.17937933 24.02491939 124 22 C124.64910154 23.58199631 125.29414694 25.16565724 125.9375 26.75 C126.29714844 27.63171875 126.65679688 28.5134375 127.02734375 29.421875 C131.06003148 40.1109268 129.59027067 51.71014324 125 62 C121.63440097 67.51047874 117.80926261 72.66164436 113 77 C112.34 77 111.68 77 111 77 C111 77.66 111 78.32 111 79 C109.35 79.66 107.7 80.32 106 81 C106 81.66 106 82.32 106 83 C83.94431883 92.15739412 61.25754464 97.79663099 38 89 C33.06659922 86.79796205 28.34285381 84.22403934 24 81 C23.67 80.01 23.34 79.02 23 78 C22.39929688 77.70996094 21.79859375 77.41992188 21.1796875 77.12109375 C14.23260616 73.54795335 9.94985978 63.41051446 6.453125 56.71484375 C4.50166876 53.06897792 2.31292174 49.58656358 0.1015625 46.09375 C-1 44 -1 44 -1 41 C-1.99 40.67 -2.98 40.34 -4 40 C-5.05589069 38.36816893 -6.0436126 36.69207001 -7 35 C-8.62867416 32.63768884 -10.31484301 30.32278396 -12 28 C-11.61328125 27.39414063 -11.2265625 26.78828125 -10.828125 26.1640625 C-5.63871293 17.8147609 -2.13149166 9.59171246 0 0 Z " fill="#3ABBED" transform="translate(481,100)"/>
<path d="M0 0 C2.78398539 2.42789423 3.99899574 4.9001978 5.5 8.25 C11.31178465 20.14825564 19.29282971 30.94017674 30.22265625 38.546875 C31.10244141 39.26617187 31.10244141 39.26617187 32 40 C32 40.66 32 41.32 32 42 C32.72703125 42.27070312 33.4540625 42.54140625 34.203125 42.8203125 C36.92402605 43.96795512 39.25583042 45.30187997 41.75 46.875 C61.45033382 58.85256982 86.40099362 62.24271636 108.9921875 57.76953125 C115.41603236 56.12602808 121.71035453 54.09207824 128 52 C129.12664062 51.6596875 130.25328125 51.319375 131.4140625 50.96875 C134.14316703 50.2809107 134.14316703 50.2809107 135 48 C136.37562854 49.28965176 137.70766393 50.62689293 139 52 C139 52.66 139 53.32 139 54 C139.57363281 54.17789063 140.14726563 54.35578125 140.73828125 54.5390625 C144.09266707 56.70579876 145.43709076 59.90702221 147.1875 63.375 C147.54263672 64.04789062 147.89777344 64.72078125 148.26367188 65.4140625 C152.58923391 73.75328647 153.26256407 82.44973665 151.03125 91.62109375 C148.80236885 96.76271731 144.93790824 101.06911121 141 105 C140.01 105.33 139.02 105.66 138 106 C138 106.66 138 107.32 138 108 C125.86898433 117.39348559 110.39911279 120.31505742 95.421875 118.7265625 C79.21190619 115.95518074 66.87509711 106.97623359 57.27441406 93.82568359 C44 74.8091954 44 74.8091954 44 71 C43.34 71 42.68 71 42 71 C40.66796875 69.2421875 40.66796875 69.2421875 39.1875 66.875 C29.82872171 52.50099124 16.23408761 43.67886104 1.3125 35.75 C0.49201172 35.31308838 -0.32847656 34.87617676 -1.17382812 34.42602539 C-5.37496286 32.2310265 -9.42732341 30.32969594 -14 29 C-13.34 28.67 -12.68 28.34 -12 28 C-11.34786708 25.97536745 -11.34786708 25.97536745 -11 24 C-10.34 24 -9.68 24 -9 24 C-8.9071875 23.319375 -8.814375 22.63875 -8.71875 21.9375 C-7.67524251 17.67273025 -5.57458979 14.01971093 -3.52734375 10.171875 C-1.77108489 6.79162782 -0.51612173 3.78489266 0 0 Z " fill="#3ABBED" transform="translate(640,73)"/>
<path d="M0 0 C1 3 1 3 0 6 C-0.62301048 13.87149778 0.25416638 20.61240001 3 28 C4.26457031 28.09087891 4.26457031 28.09087891 5.5546875 28.18359375 C7.19824219 28.30927734 7.19824219 28.30927734 8.875 28.4375 C10.51082031 28.55931641 10.51082031 28.55931641 12.1796875 28.68359375 C15 29 15 29 17 30 C15.25 33.875 15.25 33.875 13 35 C13.33 33.35 13.66 31.7 14 30 C1.39802226 29.46814631 -9.67885142 29.64478448 -20 38 C-26.77688038 44.93448225 -28.36681112 51.88330518 -28.5 61.1875 C-28.88505656 72.05794277 -29.46651307 82.56966939 -37 91 C-41.41025641 95 -41.41025641 95 -44 95 C-44.33 95.66 -44.66 96.32 -45 97 C-45.63615234 95.948125 -45.63615234 95.948125 -46.28515625 94.875 C-54.54058977 81.5211559 -64.28919382 72.17425618 -78.35546875 64.875 C-80 64 -80 64 -81 63 C-81.16004618 60.98163988 -81.2774816 58.9598458 -81.375 56.9375 C-81.7448361 51.32831914 -82.86237612 47.14973025 -85 42 C-84.67 41.34 -84.34 40.68 -84 40 C-83.13375 40.474375 -82.2675 40.94875 -81.375 41.4375 C-70.44409942 46.02496631 -56.87036467 44.46719958 -46.07373047 40.24707031 C-36.62602625 36.15106437 -29.34427672 31.19510977 -23.1875 22.8125 C-16.4150646 13.80350848 -9.87362212 5.74210648 0 0 Z " fill="#7FD4F5" transform="translate(316,62)"/>
<path d="M0 0 C9.83232818 3.77759108 18.01616382 9.17650443 26 16 C25.01 16.33 24.02 16.66 23 17 C20.8125 15.6875 20.8125 15.6875 19 14 C19 13.34 19 12.68 19 12 C16.525 11.505 16.525 11.505 14 11 C13.87882813 11.56847656 13.75765625 12.13695312 13.6328125 12.72265625 C12.58677946 17.54245464 11.40795516 22.2732934 10 27 C9.67 27 9.34 27 9 27 C8.98582031 26.17757812 8.97164062 25.35515625 8.95703125 24.5078125 C8.62565725 16.75186974 7.52776273 10.4514076 3 4 C2.01 3.34 1.02 2.68 0 2 C0 1.34 0 0.68 0 0 Z " fill="#1AA0D3" transform="translate(232,124)"/>
<path d="M0 0 C1.04693527 -0.00287018 1.04693527 -0.00287018 2.11502075 -0.00579834 C3.59279744 -0.0071601 5.0705861 -0.00346426 6.54833984 0.00488281 C8.80463777 0.01555089 11.06013368 0.00500443 13.31640625 -0.0078125 C14.75260592 -0.00649027 16.18880509 -0.00392657 17.625 0 C18.93194824 0.00225586 20.23889648 0.00451172 21.58544922 0.00683594 C24.9453125 0.265625 24.9453125 0.265625 28.9453125 2.265625 C22.3453125 2.265625 15.7453125 2.265625 8.9453125 2.265625 C9.2753125 3.915625 9.6053125 5.565625 9.9453125 7.265625 C11.2653125 7.265625 12.5853125 7.265625 13.9453125 7.265625 C13.9453125 7.925625 13.9453125 8.585625 13.9453125 9.265625 C6.2647582 6.97706255 -1.39718704 4.63008831 -9.0546875 2.265625 C-6.16147186 -0.62759064 -4.04300749 0.0069905 0 0 Z " fill="#2AA7DA" transform="translate(565.0546875,90.734375)"/>
<path d="M0 0 C28.15153143 -0.41277905 28.15153143 -0.41277905 40 2 C39.67 2.66 39.34 3.32 39 4 C35.04 4 31.08 4 27 4 C26.67 4.66 26.34 5.32 26 6 C25.47535156 5.87882812 24.95070313 5.75765625 24.41015625 5.6328125 C16.01408629 3.81669088 7.52947214 2.93012805 -1 2 C-0.67 1.34 -0.34 0.68 0 0 Z " fill="#21A3D6" transform="translate(726,104)"/>
<path d="M0 0 C2.69317188 2.69317188 2.25774053 4.09429721 2.265625 7.85546875 C2.26949219 9.62567383 2.26949219 9.62567383 2.2734375 11.43164062 C2.26570312 12.67107422 2.25796875 13.91050781 2.25 15.1875 C2.25773438 16.40759766 2.26546875 17.62769531 2.2734375 18.88476562 C2.24716194 30.97809313 -0.71384573 40.28512764 -8 50 C-8.66 50 -9.32 50 -10 50 C-10.12375 50.639375 -10.2475 51.27875 -10.375 51.9375 C-10.58125 52.618125 -10.7875 53.29875 -11 54 C-13.70879335 55.35439668 -16.00933268 55.06501451 -19 55 C-18.4328125 54.76152344 -17.865625 54.52304688 -17.28125 54.27734375 C-9.75996343 50.06593843 -5.15849773 42.53775286 -2.70703125 34.51171875 C-2.47371094 33.68285156 -2.24039063 32.85398438 -2 32 C-1.5875 30.88625 -1.175 29.7725 -0.75 28.625 C0.98731883 20.22795897 0.1111738 11.5053367 -0.87890625 3.046875 C-0.91886719 2.37140625 -0.95882812 1.6959375 -1 1 C-0.67 0.67 -0.34 0.34 0 0 Z " fill="#45BAE6" transform="translate(807,57)"/>
<path d="M0 0 C6.43311296 -0.09507063 12.65758005 -0.15316726 19 1 C19 1.33 19 1.66 19 2 C13.39 2 7.78 2 2 2 C2 2.99 2 3.98 2 5 C2.598125 5.20625 3.19625 5.4125 3.8125 5.625 C6.79114694 7.49729236 7.47741229 9.88862511 9 13 C9.99 13.33 10.98 13.66 12 14 C12 16.31 12 18.62 12 21 C12.66 21.33 13.32 21.66 14 22 C13.34 22.66 12.68 23.32 12 24 C11.48050781 23.07058594 10.96101562 22.14117188 10.42578125 21.18359375 C9.72228232 19.93437269 9.0177913 18.68570999 8.3125 17.4375 C7.950354 16.79578857 7.58820801 16.15407715 7.21508789 15.49291992 C5.28595812 12.11469067 3.30810536 8.90634089 0.9375 5.8125 C0.298125 4.884375 -0.34125 3.95625 -1 3 C-0.67 2.01 -0.34 1.02 0 0 Z " fill="#83CDE3" transform="translate(783,6)"/>
<path d="M0 0 C0 0.66 0 1.32 0 2 C-5.50452718 7.50452718 -10.12078026 8.02134956 -17.83984375 8.09765625 C-19.53909024 8.09109545 -21.23832387 8.07929794 -22.9375 8.0625 C-23.81212891 8.05798828 -24.68675781 8.05347656 -25.58789062 8.04882812 C-27.72529047 8.03714834 -29.86265463 8.01921689 -32 8 C-32.33 7.01 -32.66 6.02 -33 5 C-33.66 4.67 -34.32 4.34 -35 4 C-34.15695312 4.15726562 -33.31390625 4.31453125 -32.4453125 4.4765625 C-22.24367279 6.02647148 -13.63484149 5.63231165 -4.29296875 1.09375 C-2 0 -2 0 0 0 Z " fill="#9AD9EC" transform="translate(369,99)"/>
<path d="M0 0 C0.66 0 1.32 0 2 0 C2 4.62 2 9.24 2 14 C2.66 14.33 3.32 14.66 4 15 C3.01 15.33 2.02 15.66 1 16 C1.268125 16.556875 1.53625 17.11375 1.8125 17.6875 C1.874375 18.450625 1.93625 19.21375 2 20 C-0.35335642 22.76865462 -2.87817996 24.90586633 -5.75 27.125 C-8.25052455 28.87431597 -8.25052455 28.87431597 -9 32 C-11.875 33.75 -11.875 33.75 -15 35 C-15.99 34.67 -16.98 34.34 -18 34 C-17.49210938 33.64808594 -16.98421875 33.29617187 -16.4609375 32.93359375 C-8.30551022 27.08428916 -2.50170198 20.97805271 0 11 C0.29020222 7.30226203 0.25311753 3.69832832 0 0 Z " fill="#9DD9F0" transform="translate(545,68)"/>
<path d="M0 0 C13.20239374 1.98035906 22.253205 9.38239577 31 19 C30.34 19.66 29.68 20.32 29 21 C29 20.34 29 19.68 29 19 C28.34 19 27.68 19 27 19 C27 18.34 27 17.68 27 17 C26.4225 16.71125 25.845 16.4225 25.25 16.125 C23.16666667 15.08333333 21.08333333 14.04166667 19 13 C19 12.01 19 11.02 19 10 C18.41863281 9.88398438 17.83726562 9.76796875 17.23828125 9.6484375 C14.85017489 8.95659517 13.24460494 8.00757562 11.1875 6.625 C7.57184638 4.28466135 4.00065369 2.58359209 0 1 C0 0.67 0 0.34 0 0 Z " fill="#98D5EB" transform="translate(645,22)"/>
<path d="M0 0 C1.01578125 -0.00322266 2.0315625 -0.00644531 3.078125 -0.00976562 C11.01006589 0.04616473 18.9097955 0.47230827 26 4.3125 C24.00045254 4.35504356 21.99958364 4.35330783 20 4.3125 C19.505 3.8175 19.505 3.8175 19 3.3125 C5.23949916 1.42111642 -8.90726476 0.19418702 -21.69921875 6.31640625 C-22.45847656 6.64511719 -23.21773437 6.97382813 -24 7.3125 C-24.66 6.9825 -25.32 6.6525 -26 6.3125 C-18.40289526 0.1430898 -9.42783481 -0.14955322 0 0 Z " fill="#47BBE7" transform="translate(28,124.6875)"/>
<path d="M0 0 C0.495 0.99 0.495 0.99 1 2 C-0.74023438 2.03867188 -0.74023438 2.03867188 -2.515625 2.078125 C-11.10661176 2.36000812 -18.56266109 2.93044404 -26.6171875 6.2578125 C-29.23256612 7.07243863 -30.46418238 6.93176554 -33 6 C-31.68 5.67 -30.36 5.34 -29 5 C-29 4.34 -29 3.68 -29 3 C-19.03143819 0.41954024 -10.24656458 -0.38747513 0 0 Z " fill="#44BBE7" transform="translate(189,70)"/>
<path d="M0 0 C1 3 1 3 0 6 C-0.44584531 12.99873444 -0.06194397 19.29868209 2 26 C-2.96646796 21.19374069 -2.96646796 21.19374069 -3.09765625 16.5234375 C-3.09100795 15.14059133 -3.07908295 13.75776272 -3.0625 12.375 C-3.05798828 11.66859375 -3.05347656 10.9621875 -3.04882812 10.234375 C-3.03703875 8.48954725 -3.01910324 6.744763 -3 5 C-4.32 5.33 -5.64 5.66 -7 6 C-2.25 1.125 -2.25 1.125 0 0 Z " fill="#98D6ED" transform="translate(316,62)"/>
<path d="M0 0 C8.64765781 2.79777164 13.48818755 9.45806499 18 17 C18 17.66 18 18.32 18 19 C17.34 19 16.68 19 16 19 C15.67 17.68 15.34 16.36 15 15 C14.4225 14.855625 13.845 14.71125 13.25 14.5625 C10.125 13.78125 10.125 13.78125 7 13 C7 12.01 7 11.02 7 10 C7.66 10 8.32 10 9 10 C9 9.34 9 8.68 9 8 C8.01 7.67 7.02 7.34 6 7 C4.5 5.625 4.5 5.625 3 4 C2.443125 3.46375 1.88625 2.9275 1.3125 2.375 C0 1 0 1 0 0 Z " fill="#93D6EE" transform="translate(179,33)"/>
<path d="M0 0 C-0.66 0.66 -1.32 1.32 -2 2 C-4.625 1.625 -4.625 1.625 -7 1 C-7 0.34 -7 -0.32 -7 -1 C-11.95 -0.67 -16.9 -0.34 -22 0 C-22 0.66 -22 1.32 -22 2 C-24.31 1.34 -26.62 0.68 -29 0 C-28 -2 -28 -2 -24.3125 -3.25 C-16.30127345 -4.89596629 -7.41696959 -3.29023463 0 0 Z " fill="#A0D9ED" transform="translate(557,54)"/>
<path d="M0 0 C0.495 0.99 0.495 0.99 1 2 C-0.65 2.66 -2.3 3.32 -4 4 C-4 3.34 -4 2.68 -4 2 C-4.639375 2.165 -5.27875 2.33 -5.9375 2.5 C-9.97586652 3.15932515 -13.91807258 3.08003779 -18 3 C-18 3.66 -18 4.32 -18 5 C-23.28 5.66 -28.56 6.32 -34 7 C-30.42713289 4.61808859 -26.93282963 3.86926844 -22.8125 2.9375 C-22.08224609 2.76412109 -21.35199219 2.59074219 -20.59960938 2.41210938 C-13.75802791 0.83048603 -7.04957317 -0.17623933 0 0 Z " fill="#9AD9ED" transform="translate(472,18)"/>
<path d="M0 0 C2.74489629 2.37059225 3.93845202 4.53733158 5 8 C5.1953125 10.89453125 5.1953125 10.89453125 5.125 13.8125 C5.10695312 14.78832031 5.08890625 15.76414063 5.0703125 16.76953125 C5.03550781 17.87361328 5.03550781 17.87361328 5 19 C4.34 19 3.68 19 3 19 C0.6969113 12.43345544 -0.33693273 6.96327638 0 0 Z " fill="#6FD5FB" transform="translate(236,130)"/>
<path d="M0 0 C0 0.66 0 1.32 0 2 C-1.7902061 2.67057887 -3.58221489 3.3363469 -5.375 4 C-6.37273437 4.37125 -7.37046875 4.7425 -8.3984375 5.125 C-11 6 -11 6 -13 6 C-13.33 6.99 -13.66 7.98 -14 9 C-14.763125 9.721875 -15.52625 10.44375 -16.3125 11.1875 C-19.47650868 14.49867188 -21.15844438 17.85392784 -23 22 C-23.83988427 19.63782548 -24.17347191 18.44632878 -23.25 16.0703125 C-18.10432616 8.06235758 -10.20563205 0 0 0 Z " fill="#49BBE7" transform="translate(312,92)"/>
<path d="M0 0 C0 0.99 0 1.98 0 3 C-0.99 3 -1.98 3 -3 3 C-2.67 3.99 -2.34 4.98 -2 6 C-0.35 6.33 1.3 6.66 3 7 C3 7.66 3 8.32 3 9 C2.26394531 8.98839844 1.52789062 8.97679688 0.76953125 8.96484375 C-0.20628906 8.95582031 -1.18210938 8.94679688 -2.1875 8.9375 C-3.15042969 8.92589844 -4.11335937 8.91429688 -5.10546875 8.90234375 C-7.85576513 8.99513378 -10.32479591 9.37888315 -13 10 C-13 9.34 -13 8.68 -13 8 C-10.6640625 6.30859375 -10.6640625 6.30859375 -7.625 4.4375 C-6.62726563 3.81746094 -5.62953125 3.19742188 -4.6015625 2.55859375 C-3.09604932 1.65664216 -1.56973542 0.78486771 0 0 Z " fill="#43B9E8" transform="translate(154,77)"/>
<path d="M0 0 C6.41185944 5.00125036 11.88422283 10.45719297 13.875 18.5625 C13.936875 19.7690625 13.936875 19.7690625 14 21 C11.4250569 17.74744029 9.35518842 14.28989282 7.28125 10.70703125 C6.02109226 8.6909702 6.02109226 8.6909702 3 8 C2.67 6.35 2.34 4.7 2 3 C1.34 3 0.68 3 0 3 C0 2.01 0 1.02 0 0 Z " fill="#64C1E1" transform="translate(217,83)"/>
<path d="M0 0 C0.33 0 0.66 0 1 0 C1.13277344 1.21816406 1.26554687 2.43632813 1.40234375 3.69140625 C1.58066967 5.3151107 1.75905843 6.93880825 1.9375 8.5625 C2.02451172 9.36236328 2.11152344 10.16222656 2.20117188 10.98632812 C2.71761452 15.67256697 3.30521531 20.33680546 4 25 C3.34 25 2.68 25 2 25 C1.51171875 22.98177083 1.0234375 20.96354167 0.53515625 18.9453125 C0.05153008 16.9414343 0.05153008 16.9414343 -1 15 C-1.0969531 12.6474616 -1.1297905 10.2920305 -1.125 7.9375 C-1.12757813 6.66777344 -1.13015625 5.39804687 -1.1328125 4.08984375 C-1 1 -1 1 0 0 Z " fill="#98D5EB" transform="translate(446,55)"/>
<path d="M0 0 C0.66 0.33 1.32 0.66 2 1 C2 2.32 2 3.64 2 5 C2.99 5.33 3.98 5.66 5 6 C5 6.66 5 7.32 5 8 C4.4328125 7.65066406 3.865625 7.30132812 3.28125 6.94140625 C0.49538219 5.79175875 -0.6451585 6.1113558 -3.5 6.9375 C-6.76870247 7.87221458 -8.7459629 8.07235314 -12 7 C-11.21753906 6.57847656 -10.43507813 6.15695313 -9.62890625 5.72265625 C-8.61699219 5.17480469 -7.60507812 4.62695312 -6.5625 4.0625 C-5.55316406 3.51722656 -4.54382813 2.97195312 -3.50390625 2.41015625 C-1.13329507 1.22300532 -1.13329507 1.22300532 0 0 Z " fill="#90D7EF" transform="translate(283,95)"/>
<path d="M0 0 C0.33 1.32 0.66 2.64 1 4 C0.34 4 -0.32 4 -1 4 C-1 4.66 -1 5.32 -1 6 C-2.609375 7.62109375 -2.609375 7.62109375 -4.75 9.4375 C-5.44609375 10.03433594 -6.1421875 10.63117188 -6.859375 11.24609375 C-8.86673589 12.89081098 -10.91070312 14.46126108 -13 16 C-13.66 15.67 -14.32 15.34 -15 15 C-10.05 10.05 -5.1 5.1 0 0 Z " fill="#A7DAEE" transform="translate(122,56)"/>
<path d="M0 0 C3 1 3 1 4 3 C4.598125 3.268125 5.19625 3.53625 5.8125 3.8125 C9.62142076 5.88019984 11.63924821 9.45887232 14 13 C13.67 13.99 13.34 14.98 13 16 C12.40832031 15.33613281 11.81664062 14.67226562 11.20703125 13.98828125 C7.2358017 9.55061038 3.28020312 5.14213205 -1 1 C-0.67 0.67 -0.34 0.34 0 0 Z " fill="#1EA1D2" transform="translate(418,120)"/>
<path d="M0 0 C0.66 0.33 1.32 0.66 2 1 C0.7260411 3.03833424 -0.61061923 5.03852126 -2 7 C-2.66 7 -3.32 7 -4 7 C-4 7.66 -4 8.32 -4 9 C-4.66 9 -5.32 9 -6 9 C-6.33 9.99 -6.66 10.98 -7 12 C-7.66 12 -8.32 12 -9 12 C-9.33 13.32 -9.66 14.64 -10 16 C-10.99 15.67 -11.98 15.34 -13 15 C-11.58611621 13.24775086 -10.16877217 11.49829345 -8.75 9.75 C-7.96109375 8.77546875 -7.1721875 7.8009375 -6.359375 6.796875 C-4.33534195 4.39752456 -2.25877651 2.17588563 0 0 Z " fill="#9FD8ED" transform="translate(307,68)"/>
<path d="M0 0 C0.66 0 1.32 0 2 0 C2.66 2.31 3.32 4.62 4 7 C4.66 7 5.32 7 6 7 C6.33 8.32 6.66 9.64 7 11 C4.525 10.01 4.525 10.01 2 9 C1.34 10.32 0.68 11.64 0 13 C-0.96661363 9.87819599 -0.98988909 7.47916205 -0.5625 4.25 C-0.46066406 3.45078125 -0.35882813 2.6515625 -0.25390625 1.828125 C-0.17011719 1.22484375 -0.08632813 0.6215625 0 0 Z " fill="#4CBEE7" transform="translate(384,117)"/>
<path d="M0 0 C2.97 0 5.94 0 9 0 C9.33 0.99 9.66 1.98 10 3 C11.12148437 3.05607422 11.12148437 3.05607422 12.265625 3.11328125 C13.74289063 3.21189453 13.74289063 3.21189453 15.25 3.3125 C16.22453125 3.37050781 17.1990625 3.42851562 18.203125 3.48828125 C21.25341611 4.04636524 22.70711276 4.96369776 25 7 C16.45269656 5.67429579 8.27758852 3.48931859 0 1 C0 0.67 0 0.34 0 0 Z " fill="#6DD1F8" transform="translate(90,140)"/>
<path d="M0 0 C0.625 1.8125 0.625 1.8125 1 4 C0.01 5.485 0.01 5.485 -1 7 C-1.268125 7.886875 -1.53625 8.77375 -1.8125 9.6875 C-3.28863406 13.80513711 -5.27583321 17.5598663 -8 21 C-8.66 21 -9.32 21 -10 21 C-9.67 19.68 -9.34 18.36 -9 17 C-8.34 17 -7.68 17 -7 17 C-6.84724609 15.95779297 -6.84724609 15.95779297 -6.69140625 14.89453125 C-5.88282994 11.50947448 -4.53324287 8.77712981 -2.9375 5.6875 C-2.38964844 4.61886719 -1.84179688 3.55023438 -1.27734375 2.44921875 C-0.85582031 1.64097656 -0.43429687 0.83273438 0 0 Z " fill="#46BCE8" transform="translate(638,80)"/>
<path d="M0 0 C-0.86625 0.969375 -1.7325 1.93875 -2.625 2.9375 C-6.15196844 7.03550142 -9.09102317 11.45085539 -12 16 C-13 13 -13 13 -12 10 C-11.34 10 -10.68 10 -10 10 C-9.67 8.68 -9.34 7.36 -9 6 C-8.34 6 -7.68 6 -7 6 C-7 4.35 -7 2.7 -7 1 C-4.53721199 -0.231394 -2.7204945 -0.07159196 0 0 Z " fill="#9ED8ED" transform="translate(465,25)"/>
<path d="M0 0 C0.66 0 1.32 0 2 0 C0.96167975 6.10696254 -3.99246707 10.52780919 -8.8125 14.0625 C-9.534375 14.371875 -10.25625 14.68125 -11 15 C-11.66 14.67 -12.32 14.34 -13 14 C-12.22076172 13.48953125 -12.22076172 13.48953125 -11.42578125 12.96875 C-6.68897014 9.6766225 -3.73670243 6.63426258 -1.0078125 1.5390625 C-0.67523438 1.03117188 -0.34265625 0.52328125 0 0 Z " fill="#75D5FC" transform="translate(381,127)"/>
<path d="M0 0 C0 0.66 0 1.32 0 2 C-3.91882221 2.9173273 -7.60345677 3.16438768 -11.625 3.1875 C-12.75164063 3.20167969 -13.87828125 3.21585937 -15.0390625 3.23046875 C-18 3 -18 3 -21 1 C-18.62515638 0.83079995 -16.25016522 0.66457137 -13.875 0.5 C-13.20984375 0.45230469 -12.5446875 0.40460938 -11.859375 0.35546875 C-7.89764586 0.08358538 -3.97061445 -0.04947806 0 0 Z " fill="#A9DBEF" transform="translate(774,86)"/>
<path d="M0 0 C0.66 0 1.32 0 2 0 C5 6.625 5 6.625 5 10 C5.99 10.33 6.98 10.66 8 11 C7.67 13.31 7.34 15.62 7 18 C6.34 18 5.68 18 5 18 C4.16320723 15.37605694 3.33043058 12.75095616 2.5 10.125 C2.26152344 9.37863281 2.02304687 8.63226563 1.77734375 7.86328125 C0 2.2265625 0 2.2265625 0 0 Z " fill="#60C0E5" transform="translate(800,38)"/>
<path d="M0 0 C1.77662117 1.07381517 3.54609689 2.159458 5.3125 3.25 C6.29863281 3.85328125 7.28476562 4.4565625 8.30078125 5.078125 C10.82922888 6.87840898 12.326533 8.41840585 14 11 C12.35 10.67 10.7 10.34 9 10 C9 9.34 9 8.68 9 8 C6.03 7.505 6.03 7.505 3 7 C2.67 5.68 2.34 4.36 2 3 C1.34 3 0.68 3 0 3 C0 2.01 0 1.02 0 0 Z " fill="#5EBEE2" transform="translate(856,28)"/>
<path d="M0 0 C4.60428934 1.31551124 8.18320388 3.09196486 12 6 C12 6.66 12 7.32 12 8 C9 9 9 9 6 9 C4.3125 7 4.3125 7 3 5 C3.66 5 4.32 5 5 5 C5 4.34 5 3.68 5 3 C3.35 2.67 1.7 2.34 0 2 C0 1.34 0 0.68 0 0 Z " fill="#92D4F0" transform="translate(562,57)"/>
<path d="M0 0 C0.33 0.66 0.66 1.32 1 2 C-0.50240234 2.05607422 -0.50240234 2.05607422 -2.03515625 2.11328125 C-11.88399463 2.51510949 -11.88399463 2.51510949 -21 6 C-21.66 5.34 -22.32 4.68 -23 4 C-15.18183678 1.25506495 -8.32110535 -0.67620721 0 0 Z " fill="#A6DCED" transform="translate(171,30)"/>
<path d="M0 0 C0.66 0.99 1.32 1.98 2 3 C3.29355827 4.37195574 4.62298702 5.71182656 6 7 C6.33 7 6.66 7 7 7 C7 9.31 7 11.62 7 14 C7.66 14.33 8.32 14.66 9 15 C8.34 15.66 7.68 16.32 7 17 C5.68684387 14.70870707 4.37444807 12.4169845 3.0625 10.125 C2.50272461 9.14853516 2.50272461 9.14853516 1.93164062 8.15234375 C-0.88671875 3.2265625 -0.88671875 3.2265625 -2 1 C-1.34 0.67 -0.68 0.34 0 0 Z " fill="#62C2E7" transform="translate(788,13)"/>
<path d="M0 0 C1.12148438 0.00322266 2.24296875 0.00644531 3.3984375 0.00976562 C4.5740625 0.01814453 5.7496875 0.02652344 6.9609375 0.03515625 C8.14429687 0.03966797 9.32765625 0.04417969 10.546875 0.04882812 C13.47661257 0.06064158 16.40625022 0.07711367 19.3359375 0.09765625 C19.3359375 0.42765625 19.3359375 0.75765625 19.3359375 1.09765625 C18.48999023 1.12738525 18.48999023 1.12738525 17.62695312 1.15771484 C15.02954176 1.25397436 12.43282647 1.36323677 9.8359375 1.47265625 C8.505625 1.5190625 8.505625 1.5190625 7.1484375 1.56640625 C1.60757574 1.81085603 -3.33105183 2.5650387 -8.6640625 4.09765625 C-8.3340625 3.10765625 -8.0040625 2.11765625 -7.6640625 1.09765625 C-5.00228029 -0.23323485 -2.97666854 -0.01503368 0 0 Z " fill="#70D3FB" transform="translate(16.6640625,123.90234375)"/>
<path d="M0 0 C0.66 0.99 1.32 1.98 2 3 C1.484375 3.5775 0.96875 4.155 0.4375 4.75 C-1.26505193 6.87827523 -1.26505193 6.87827523 -0.6875 9.25 C-0.460625 9.8275 -0.23375 10.405 0 11 C-4 11 -4 11 -8 10 C-5.36 6.7 -2.72 3.4 0 0 Z " fill="#94D7EF" transform="translate(293,84)"/>
<path d="M0 0 C1.125 3.75 1.125 3.75 0 6 C-0.33 6.99 -0.66 7.98 -1 9 C-1.33 9.66 -1.66 10.32 -2 11 C-3.65 11 -5.3 11 -7 11 C-5.5140084 6.40693504 -3.14985318 3.56430755 0 0 Z " fill="#93D6ED" transform="translate(397,53)"/>
<path d="M0 0 C0.66 0.99 1.32 1.98 2 3 C-5.9375 11.15798611 -5.9375 11.15798611 -12 12 C-11 10 -11 10 -8.8125 8.8125 C-5.12885593 6.43859604 -2.71237643 3.40212163 0 0 Z " fill="#46BDE7" transform="translate(381,131)"/>
<path d="M0 0 C1 2 1 2 -0.0625 5.5625 C-2 9 -2 9 -5.1875 9.9375 C-6.115625 9.958125 -7.04375 9.97875 -8 10 C-6.34908222 5.70761377 -3.26245434 3.1206085 0 0 Z " fill="#9AD9ED" transform="translate(406,43)"/>
<path d="M0 0 C-3.4990341 3.4990341 -7.90254986 4.8540127 -12.75 5.19140625 C-15.17393336 5.18796316 -17.58000323 5.13389326 -20 5 C-20 4.67 -20 4.34 -20 4 C-19.35933594 3.89042969 -18.71867188 3.78085938 -18.05859375 3.66796875 C-13.8520328 2.89687039 -9.95158469 2.13185721 -6.0625 0.3125 C-3 -1 -3 -1 0 0 Z " fill="#49BAE7" transform="translate(157,143)"/>
<path d="M0 0 C2 2 2 2 2.22705078 3.87939453 C2.21657715 4.62302246 2.20610352 5.36665039 2.1953125 6.1328125 C2.18886719 6.93847656 2.18242188 7.74414062 2.17578125 8.57421875 C2.15902344 9.41597656 2.14226563 10.25773437 2.125 11.125 C2.11597656 11.97449219 2.10695313 12.82398437 2.09765625 13.69921875 C2.07405647 15.79959884 2.03818483 17.89983444 2 20 C1.67 20 1.34 20 1 20 C0.63704322 16.85511498 0.28611204 13.70900484 -0.0625 10.5625 C-0.16626953 9.66466797 -0.27003906 8.76683594 -0.37695312 7.84179688 C-0.47041016 6.98779297 -0.56386719 6.13378906 -0.66015625 5.25390625 C-0.74918213 4.46314697 -0.83820801 3.6723877 -0.92993164 2.85766602 C-0.9530542 2.24463623 -0.97617676 1.63160645 -1 1 C-0.67 0.67 -0.34 0.34 0 0 Z " fill="#74C9E5" transform="translate(807,57)"/>
<path d="M0 0 C0.66 0 1.32 0 2 0 C2.06058594 0.74765625 2.12117187 1.4953125 2.18359375 2.265625 C2.26738281 3.25046875 2.35117188 4.2353125 2.4375 5.25 C2.51871094 6.22453125 2.59992188 7.1990625 2.68359375 8.203125 C2.95074584 10.56461753 3.35371968 12.71901065 4 15 C2.68 14.34 1.36 13.68 0 13 C0 8.71 0 4.42 0 0 Z " fill="#70D3FB" transform="translate(235,112)"/>
<path d="M0 0 C1.19126781 3.57380342 0.7349445 5.50883302 0.0625 9.1875 C-0.13214844 10.27417969 -0.32679688 11.36085938 -0.52734375 12.48046875 C-0.68332031 13.31191406 -0.83929688 14.14335938 -1 15 C-1.33 15 -1.66 15 -2 15 C-2 11.7 -2 8.4 -2 5 C-3.65 5.33 -5.3 5.66 -7 6 C-2.25 1.125 -2.25 1.125 0 0 Z " fill="#B4DEEF" transform="translate(316,62)"/>
<path d="M0 0 C3.21746321 2.65790439 3.08233008 3.41165038 4 8 C0.04 8 -3.92 8 -8 8 C-8 7.67 -8 7.34 -8 7 C-5.36 6.67 -2.72 6.34 0 6 C-0.185625 5.38125 -0.37125 4.7625 -0.5625 4.125 C-1 2 -1 2 0 0 Z " fill="#70D3FA" transform="translate(432,138)"/>
<path d="M0 0 C0.66 0.99 1.32 1.98 2 3 C-2.10471204 9.7434555 -2.10471204 9.7434555 -6 11 C-6.99 11 -7.98 11 -9 11 C-8.43410156 10.37351562 -7.86820312 9.74703125 -7.28515625 9.1015625 C-6.18494141 7.87566406 -6.18494141 7.87566406 -5.0625 6.625 C-4.33160156 5.81289062 -3.60070312 5.00078125 -2.84765625 4.1640625 C-0.97010529 2.14075833 -0.97010529 2.14075833 0 0 Z " fill="#A1DDEF" transform="translate(378,87)"/>
<path d="M0 0 C0.33 0.66 0.66 1.32 1 2 C0.0625 4.625 0.0625 4.625 -1 7 C-1.66 7 -2.32 7 -3 7 C-3.33 8.32 -3.66 9.64 -4 11 C-6.97 10.505 -6.97 10.505 -10 10 C-10 9.67 -10 9.34 -10 9 C-8.35 9 -6.7 9 -5 9 C-4.5978125 7.6078125 -4.5978125 7.6078125 -4.1875 6.1875 C-3.08851629 3.23759634 -2.37581439 1.94384814 0 0 Z " fill="#70D4FB" transform="translate(632,90)"/>
<path d="M0 0 C2.54344286 2.27301934 3.87616437 4.45086481 5.25 7.5625 C5.60578125 8.34753906 5.9615625 9.13257812 6.328125 9.94140625 C7 12 7 12 6 14 C2.06153846 10.67692308 2.06153846 10.67692308 1.75 7.25 C1.87375 6.13625 1.87375 6.13625 2 5 C1.34 5 0.68 5 0 5 C0 3.35 0 1.7 0 0 Z " fill="#47BBE6" transform="translate(640,73)"/>
<path d="M0 0 C0.33 0.66 0.66 1.32 1 2 C-0.82671379 4.53926173 -2.66877878 6.9050512 -5 9 C-8.375 9.4375 -8.375 9.4375 -11 9 C-9.948125 8.1646875 -9.948125 8.1646875 -8.875 7.3125 C-5.88655739 4.90875268 -2.94059762 2.46189568 0 0 Z " fill="#47BCE9" transform="translate(167,133)"/>
<path d="M0 0 C3.625 0.375 3.625 0.375 7 1 C7 1.33 7 1.66 7 2 C0.88595404 3.85743168 -4.58518742 5.42765417 -11 5 C-10.67 4.34 -10.34 3.68 -10 3 C-7.97456444 2.74280183 -5.94649776 2.49157878 -3.91015625 2.34375 C-1.76477844 2.14523788 -1.76477844 2.14523788 0 0 Z " fill="#72D4FA" transform="translate(753,127)"/>
<path d="M0 0 C2.64752004 2.57784846 4.94432065 4.91648098 7 8 C5.35 8.33 3.7 8.66 2 9 C-0.29013653 5.5647952 -0.17842973 4.014669 0 0 Z " fill="#5DC4E8" transform="translate(484,102)"/>
<path d="M0 0 C4.74018901 1.83491188 9.36413251 3.91941459 14 6 C14 6.33 14 6.66 14 7 C8.36261092 7.54998918 5.5402968 6.11588996 1 3 C0.67 2.01 0.34 1.02 0 0 Z " fill="#A8DEEF" transform="translate(465,99)"/>
<path d="M0 0 C0 3.71253164 -0.783548 5.04473066 -3 8 C-6 9.875 -6 9.875 -9 11 C-9.99 10.67 -10.98 10.34 -12 10 C-11.46890625 9.61328125 -10.9378125 9.2265625 -10.390625 8.828125 C-6.67177773 6.08649307 -3.14670262 3.40892784 0 0 Z " fill="#A7DEEE" transform="translate(539,92)"/>
<path d="M0 0 C0.99 0.495 0.99 0.495 2 1 C2 1.66 2 2.32 2 3 C2.639375 3.28875 3.27875 3.5775 3.9375 3.875 C6 5 6 5 7 7 C5.35 7.33 3.7 7.66 2 8 C-0.1519437 4.77208445 -0.20086443 3.71599191 0 0 Z " fill="#9ADAEF" transform="translate(458,92)"/>
<path d="M0 0 C4.74018901 1.83491188 9.36413251 3.91941459 14 6 C14 6.33 14 6.66 14 7 C9.0569398 6.50569398 5.25023806 5.63109975 1 3 C0.67 2.01 0.34 1.02 0 0 Z " fill="#A2D9EE" transform="translate(587,72)"/>
<path d="M0 0 C1.12894876 0.93274109 2.25300876 1.87140122 3.375 2.8125 C4.00148438 3.33457031 4.62796875 3.85664062 5.2734375 4.39453125 C7 6 7 6 9 9 C7.68 9.33 6.36 9.66 5 10 C4.16121545 8.71186658 3.32913217 7.41936744 2.5 6.125 C2.0359375 5.40570313 1.571875 4.68640625 1.09375 3.9453125 C0 2 0 2 0 0 Z " fill="#6BC9E7" transform="translate(876,43)"/>
<path d="M0 0 C1.89692143 0.45380895 3.79249595 0.91324992 5.6875 1.375 C6.74324219 1.63023438 7.79898438 1.88546875 8.88671875 2.1484375 C11.70406766 2.91905489 14.31668325 3.85498543 17 5 C17 5.33 17 5.66 17 6 C12.05575834 6.35316012 9.32877603 5.30254044 5 3 C2.26427415 2.30092586 2.26427415 2.30092586 0 2 C0 1.34 0 0.68 0 0 Z " fill="#72D5FC" transform="translate(560,94)"/>
<path d="M0 0 C0.85276722 2.41707906 1.12087895 3.64003451 0.29296875 6.10546875 C-0.25423828 7.13607422 -0.25423828 7.13607422 -0.8125 8.1875 C-1.34810547 9.22970703 -1.34810547 9.22970703 -1.89453125 10.29296875 C-3 12 -3 12 -5 13 C-4.25 7.25 -4.25 7.25 -2 5 C-1.29289322 3.35008418 -0.62056011 1.68437744 0 0 Z " fill="#72D3FB" transform="translate(804,89)"/>
<path d="M0 0 C0.95465783 2.16967689 1.14401212 3.56328793 0.3984375 5.82421875 C-0.35870385 7.5684743 -1.17609198 9.28627131 -2 11 C-2.33 11 -2.66 11 -3 11 C-3.33 8.36 -3.66 5.72 -4 3 C-2.68 2.01 -1.36 1.02 0 0 Z " fill="#71D1F7" transform="translate(639,74)"/>
<path d="M0 0 C4.60139641 1.48868707 7.50227094 3.74629855 11 7 C11 7.66 11 8.32 11 9 C7.59233453 7.80271213 5.38724674 6.71278039 3 4 C2.443125 3.46375 1.88625 2.9275 1.3125 2.375 C0 1 0 1 0 0 Z " fill="#A4DBEE" transform="translate(179,33)"/>
<path d="M0 0 C0.33 0.66 0.66 1.32 1 2 C-0.65 2.66 -2.3 3.32 -4 4 C-4 3.34 -4 2.68 -4 2 C-7.3 2 -10.6 2 -14 2 C-14 1.67 -14 1.34 -14 1 C-9.27616037 0.34843591 -4.78025483 -0.11950637 0 0 Z " fill="#B0DBEC" transform="translate(472,18)"/>
<path d="M0 0 C1.65161581 0.75836443 3.29617138 1.53212076 4.9375 2.3125 C5.85402344 2.74175781 6.77054688 3.17101562 7.71484375 3.61328125 C10 5 10 5 11 8 C9.35 8.33 7.7 8.66 6 9 C6.66 8.67 7.32 8.34 8 8 C7.67 7.34 7.34 6.68 7 6 C6.01 5.67 5.02 5.34 4 5 C4 4.34 4 3.68 4 3 C2.68 2.67 1.36 2.34 0 2 C0 1.34 0 0.68 0 0 Z " fill="#71D8FC" transform="translate(763,115)"/>
<path d="M0 0 C0 0.66 0 1.32 0 2 C-3.28519475 3.09506492 -5.73663415 3.09960608 -9.1875 3.0625 C-10.81751953 3.04896484 -10.81751953 3.04896484 -12.48046875 3.03515625 C-13.31191406 3.02355469 -14.14335938 3.01195313 -15 3 C-15 2.67 -15 2.34 -15 2 C-13.2508503 1.66223316 -11.50063855 1.32996329 -9.75 1 C-8.77546875 0.814375 -7.8009375 0.62875 -6.796875 0.4375 C-4 0 -4 0 0 0 Z " fill="#A0DAED" transform="translate(789,83)"/>
<path d="M0 0 C1.68178661 2.52267991 2.90106742 4.81091823 4.125 7.5625 C4.47820312 8.34753906 4.83140625 9.13257812 5.1953125 9.94140625 C6 12 6 12 6 14 C3 13 3 13 1.3125 9.8125 C-0.01535157 6.4652075 -0.26451861 3.61508773 0 0 Z " fill="#9ED7EF" transform="translate(202,62)"/>
<path d="M0 0 C0.33 0.99 0.66 1.98 1 3 C-2.63 2.67 -6.26 2.34 -10 2 C-6.3558226 -0.4294516 -4.28758728 -0.16179575 0 0 Z " fill="#6FD0F7" transform="translate(607,92)"/>
<path d="M0 0 C1.32 0 2.64 0 4 0 C4 0.66 4 1.32 4 2 C5.32 2.33 6.64 2.66 8 3 C8 3.66 8 4.32 8 5 C8.66 5 9.32 5 10 5 C9.67 5.99 9.34 6.98 9 8 C7.49712782 6.85793642 5.99776716 5.71125043 4.5 4.5625 C3.6646875 3.92441406 2.829375 3.28632812 1.96875 2.62890625 C1.3190625 2.09136719 0.669375 1.55382812 0 1 C0 0.67 0 0.34 0 0 Z " fill="#28A4D6" transform="translate(585,103)"/>
<path d="M0 0 C4.3890815 0.51035831 7.33708062 1.52214277 11 4 C7.59068103 5.13643966 6.99664544 4.86747764 3.8125 3.5625 C3.09707031 3.27503906 2.38164063 2.98757812 1.64453125 2.69140625 C1.10183594 2.46324219 0.55914063 2.23507813 0 2 C0 1.34 0 0.68 0 0 Z " fill="#1CA3D5" transform="translate(616,98)"/>
<path d="M0 0 C1.79158489 -0.02696365 3.58328473 -0.04637917 5.375 -0.0625 C6.37273437 -0.07410156 7.37046875 -0.08570312 8.3984375 -0.09765625 C11 0 11 0 13 1 C11.25 4.875 11.25 4.875 9 6 C9.33 4.35 9.66 2.7 10 1 C6.7 1 3.4 1 0 1 C0 0.67 0 0.34 0 0 Z " fill="#81CBE1" transform="translate(320,91)"/>
<path d="M0 0 C0.66 0.33 1.32 0.66 2 1 C1.67 1.99 1.34 2.98 1 4 C-2.80269732 5.6900877 -5.05272168 6.19873962 -9 5 C-7.54735962 4.1361871 -6.0876837 3.28419546 -4.625 2.4375 C-3.40683594 1.72400391 -3.40683594 1.72400391 -2.1640625 0.99609375 C-1.44992188 0.66738281 -0.73578125 0.33867188 0 0 Z " fill="#9EDEF1" transform="translate(89,84)"/>
<path d="M0 0 C0.66 0.33 1.32 0.66 2 1 C1.00269864 3.4932534 0.34925469 4.77467439 -1.9375 6.25 C-4 7 -4 7 -7 7 C-7 6.34 -7 5.68 -7 5 C-5.46875 3.7109375 -5.46875 3.7109375 -3.5 2.375 C-2.8503125 1.92898437 -2.200625 1.48296875 -1.53125 1.0234375 C-1.0259375 0.68570313 -0.520625 0.34796875 0 0 Z " fill="#57BEE4" transform="translate(148,80)"/>
<path d="M0 0 C0 0.66 0 1.32 0 2 C-3.27037599 5.27037599 -6.5130254 5.56856013 -11 6 C-8.24029211 2.78034079 -4.3526723 0 0 0 Z " fill="#9CD6EB" transform="translate(431,28)"/>
<path d="M0 0 C4.29 0.66 8.58 1.32 13 2 C13 2.33 13 2.66 13 3 C9.7 3.33 6.4 3.66 3 4 C3 3.34 3 2.68 3 2 C2.01 1.67 1.02 1.34 0 1 C0 0.67 0 0.34 0 0 Z " fill="#9EDCEC" transform="translate(233,104)"/>
<path d="M0 0 C-0.33 1.32 -0.66 2.64 -1 4 C-5.455 4.495 -5.455 4.495 -10 5 C-3.63636364 0 -3.63636364 0 0 0 Z " fill="#A3DBF0" transform="translate(281,98)"/>
<path d="M0 0 C1.32 0.99 2.64 1.98 4 3 C4.33 2.34 4.66 1.68 5 1 C5 1.66 5 2.32 5 3 C6.98 3 8.96 3 11 3 C11 3.33 11 3.66 11 4 C6.38 4 1.76 4 -3 4 C-2.34 3.67 -1.68 3.34 -1 3 C-0.67 2.01 -0.34 1.02 0 0 Z " fill="#93E2FD" transform="translate(314,87)"/>
<path d="M0 0 C0.33 0 0.66 0 1 0 C1.3227506 4.62609198 0.84450614 7.28026121 -2 11 C-2.66 11 -3.32 11 -4 11 C-3.52269162 9.5410574 -3.04308958 8.08286504 -2.5625 6.625 C-2.29566406 5.81289062 -2.02882813 5.00078125 -1.75390625 4.1640625 C-1 2 -1 2 0 0 Z " fill="#A5DBF0" transform="translate(383,76)"/>
<path d="M0 0 C-0.99 0.33 -1.98 0.66 -3 1 C-3 1.66 -3 2.32 -3 3 C-6.63 3 -10.26 3 -14 3 C-14 2.67 -14 2.34 -14 2 C-4.58997722 -0.29612756 -4.58997722 -0.29612756 0 0 Z " fill="#A4DDF0" transform="translate(803,80)"/>
<path d="M0 0 C0 0.99 0 1.98 0 3 C-0.99 3.33 -1.98 3.66 -3 4 C-2.34 4.33 -1.68 4.66 -1 5 C-1.33 5.99 -1.66 6.98 -2 8 C-2.66 8 -3.32 8 -4 8 C-4 7.34 -4 6.68 -4 6 C-4.66 5.67 -5.32 5.34 -6 5 C-3.9927092 1.9890638 -3.16115776 1.36983503 0 0 Z " fill="#8AD1ED" transform="translate(110,70)"/>
<path d="M0 0 C-0.99 1.485 -0.99 1.485 -2 3 C-4.1640625 3.29296875 -4.1640625 3.29296875 -6.625 3.1875 C-7.44226563 3.16042969 -8.25953125 3.13335937 -9.1015625 3.10546875 C-9.72804688 3.07066406 -10.35453125 3.03585938 -11 3 C-7.11595442 0.41063628 -4.5725325 -0.12358196 0 0 Z " fill="#4CBCE8" transform="translate(760,129)"/>
<path d="M0 0 C3.98381075 2.16264012 6.88983545 4.71211176 10 8 C6.16713064 7.45244723 4.59901736 5.7666959 2 3 C1.01 2.34 0.02 1.68 -1 1 C-0.67 0.67 -0.34 0.34 0 0 Z " fill="#6DD4FB" transform="translate(414,120)"/>
<path d="M0 0 C1.485 0.99 1.485 0.99 3 2 C3.1875 4.625 3.1875 4.625 3 7 C2.34 7 1.68 7 1 7 C0.01 7.495 0.01 7.495 -1 8 C-0.67 5.36 -0.34 2.72 0 0 Z " fill="#3CB6E3" transform="translate(481,100)"/>
<path d="M0 0 C0.33 0 0.66 0 1 0 C1.32374517 5.50366792 1.53286034 9.43672206 -2 14 C-3.49341969 11.01316063 -2.40648676 9.04839022 -1.5625 5.875 C-1.27503906 4.77929688 -0.98757813 3.68359375 -0.69140625 2.5546875 C-0.46324219 1.71164063 -0.23507812 0.86859375 0 0 Z " fill="#4DBEE9" transform="translate(808,77)"/>
<path d="M0 0 C1.65 1.32 3.3 2.64 5 4 C4.67 5.98 4.34 7.96 4 10 C1.16625119 6.79663178 0.4794463 4.21912747 0 0 Z " fill="#73D1F3" transform="translate(231,102)"/>
<path d="M0 0 C4.455 2.97 4.455 2.97 9 6 C7.68 6.33 6.36 6.66 5 7 C4.67 6.01 4.34 5.02 4 4 C3.01 4 2.02 4 1 4 C0.67 2.68 0.34 1.36 0 0 Z " fill="#6ECAE7" transform="translate(208,76)"/>
<path d="M0 0 C2.875 0.6875 2.875 0.6875 6 2 C7.375 4.625 7.375 4.625 8 7 C4.2047869 5.50902342 2.38957269 3.24299151 0 0 Z " fill="#6BD0F6" transform="translate(491,110)"/>
<path d="M0 0 C-0.66 1.65 -1.32 3.3 -2 5 C-2.66 4.67 -3.32 4.34 -4 4 C-4 3.34 -4 2.68 -4 2 C-5.32 1.67 -6.64 1.34 -8 1 C-5.29120665 -0.35439668 -2.99066732 -0.06501451 0 0 Z " fill="#8FD6F2" transform="translate(84,90)"/>
<path d="M0 0 C0.66 0.33 1.32 0.66 2 1 C-0.25 3.5625 -0.25 3.5625 -3 6 C-4.32 5.67 -5.64 5.34 -7 5 C-4.69 3.35 -2.38 1.7 0 0 Z " fill="#A5DDEE" transform="translate(98,78)"/>
<path d="M0 0 C0.66 0 1.32 0 2 0 C5.10096154 5.45769231 5.10096154 5.45769231 4.58984375 8.203125 C4.39519531 8.79609375 4.20054687 9.3890625 4 10 C3.32845067 8.71086513 2.66291141 7.41859796 2 6.125 C1.62875 5.40570313 1.2575 4.68640625 0.875 3.9453125 C0 2 0 2 0 0 Z " fill="#74D5F9" transform="translate(644,78)"/>
<path d="M0 0 C1.60080151 4.00200378 0.29279692 7.04556236 -1 11 C-1.33 11 -1.66 11 -2 11 C-2.05399736 9.54207116 -2.09279177 8.08357288 -2.125 6.625 C-2.15980469 5.40683594 -2.15980469 5.40683594 -2.1953125 4.1640625 C-2 2 -2 2 0 0 Z " fill="#9EDAEA" transform="translate(450,42)"/>
<path d="M0 0 C3.91211733 1.15585285 6.8745041 2.35534962 10 5 C9.01 5.33 8.02 5.66 7 6 C7 5.34 7 4.68 7 4 C4.03 3.505 4.03 3.505 1 3 C0.67 2.01 0.34 1.02 0 0 Z " fill="#65C3E5" transform="translate(836,18)"/>
<path d="M0 0 C0.33 0.99 0.66 1.98 1 3 C-1.25 5.5625 -1.25 5.5625 -4 8 C-6.171875 7.65234375 -6.171875 7.65234375 -8 7 C-7.50628906 6.66226563 -7.01257813 6.32453125 -6.50390625 5.9765625 C-5.86324219 5.53054687 -5.22257812 5.08453125 -4.5625 4.625 C-3.92441406 4.18414062 -3.28632813 3.74328125 -2.62890625 3.2890625 C-0.86259072 2.07839147 -0.86259072 2.07839147 0 0 Z " fill="#48BCE8" transform="translate(280,150)"/>
<path d="M0 0 C0.66 0.33 1.32 0.66 2 1 C0.35 2.65 -1.3 4.3 -3 6 C-3.66 5.67 -4.32 5.34 -5 5 C-4.67 3.68 -4.34 2.36 -4 1 C-2.02 1.495 -2.02 1.495 0 2 C0 1.34 0 0.68 0 0 Z " fill="#44B9E4" transform="translate(325,98)"/>
<path d="M0 0 C0.66 0.33 1.32 0.66 2 1 C-0.83430453 4.2542015 -2.68607774 5.5206753 -7 6 C-4.74259377 3.66475218 -2.7194239 1.81294927 0 0 Z " fill="#9FD6E9" transform="translate(418,34)"/>
<path d="M0 0 C2.97 1.98 2.97 1.98 6 4 C5.67 4.99 5.34 5.98 5 7 C4.34 7 3.68 7 3 7 C2.67 5.68 2.34 4.36 2 3 C1.34 3 0.68 3 0 3 C0 2.01 0 1.02 0 0 Z " fill="#68C4E4" transform="translate(856,28)"/>
<path d="M0 0 C0.66 0 1.32 0 2 0 C3.38938077 1.96147874 4.7260411 3.96166576 6 6 C5.34 6.66 4.68 7.32 4 8 C3.896875 7.360625 3.79375 6.72125 3.6875 6.0625 C3.460625 5.381875 3.23375 4.70125 3 4 C2.01 3.67 1.02 3.34 0 3 C0 2.01 0 1.02 0 0 Z " fill="#45BAE6" transform="translate(170,92)"/>
<path d="M0 0 C1.65 0 3.3 0 5 0 C2.14693203 2.32472205 -0.54074837 3.7508258 -4 5 C-3.67 3.68 -3.34 2.36 -3 1 C-2.01 1.33 -1.02 1.66 0 2 C0 1.34 0 0.68 0 0 Z " fill="#6ACFF8" transform="translate(155,74)"/>
<path d="M0 0 C4.875 4.625 4.875 4.625 6 8 C4.68 7.67 3.36 7.34 2 7 C1.34 4.69 0.68 2.38 0 0 Z " fill="#73C8E2" transform="translate(887,54)"/>
<path d="M0 0 C0.33 1.32 0.66 2.64 1 4 C0.34 4 -0.32 4 -1 4 C-1 4.66 -1 5.32 -1 6 C-2.32 5.67 -3.64 5.34 -5 5 C-3.35 3.35 -1.7 1.7 0 0 Z " fill="#99D5EC" transform="translate(122,56)"/>
<path d="M0 0 C4.75 0.75 4.75 0.75 7 3 C6.67 3.99 6.34 4.98 6 6 C3.97945196 4.35830472 1.97956942 2.69088222 0 1 C0 0.67 0 0.34 0 0 Z " fill="#9CDBEC" transform="translate(535,56)"/>
</svg>
