<svg xmlns="http://www.w3.org/2000/svg" viewBox="0 6.137704918032788 2048 591.2655737704918" version="1.1" style="max-height: 500px" width="2048" height="591.2655737704918">
<path fill="#0AA2DD" d="m0 0h2048v624h-2048z" transform="translate(0)"/>
<path fill="#FEFEFE" d="m0 0h2048v180l-3-3-10-17-11-16-8-10-11-13-21-21-11-9-14-11-27-18-22-12-25-12-30-11-28-7-19-3-11-1h-28l13 18 17 28 12 25 6 15 7 23 4 22 1 10v19l-1 2-19 5-41 9-31 5-18 2h-43l-25-4-21-6-16-7-16-9-13-11-14-14-9-11-14-18-13-17-9-10-7-8-10-9-16-11-16-8-10-4-14-3h-18l-9 2h-5v2l6 2 11 7 10 9 8 10 7 15 3 13v17l-4 13-7 13-11 12-8 7-12 7-15 5-5 1h-23l-17-4-16-6-21-11-25-16-16-10-19-10-19-7-14-3-8-1h-11l-14 3-6 1v2l8 1 14 7 10 10 8 16 2 12-1 12-4 12-7 13-12 14-14 11-19 10-20 6-22 3h-17l-11-1-10-10-12-17-3-3 1 2v12l-2 8-5-1-19-9-11-8-10-9-8-9-9-14-6-15-4-17-1-7v-14l3-20 5-16 8-16 7-11 12-14 13-11 11-6h-12l-21 2-24 5-27 9-18 8-18 10-17 12-14 12-10 9-7 8-13 17-9 15-11 23-10 23-7 11-9 10-9 8-16 8-13 4-14 2h-11l-17-3-15-6-9-6 6-7 9-7-13-3-19-2-7-15-3-12v-23l3-10 1-2-14 9-11 9-12 12-15 20-7 9-11 12-10 8-17 9-21 7-15 3-8 1h-19l-22-4-9-4-3-5-9-16-10-13-11-11-13-10-8-5-13-30-14-29-10-15-9-10-9-8-15-8-15-4h-21l-16 4-13 5-13 7-11 8-13 11-17 17-7 8-12 13-24 24-17 13-15 10-25 14-20 9-19 7-25 7-28 5-18 2h-44l-27-3-1-1z" transform="translate(0)"/>
<path fill="#3ABDF2" d="m0 0h13l-3 3-10 6-14 12-10 12-9 15-7 16-4 16-2 15v14l4 21 6 16 7 12 11 13 11 10 13 8 17 8 3 1 1-2-2 11-8 20-9 15-4 7-5-3-13-10-20-12-20-9-25-8-25-5-19-2h-26l-28 3 4 2 20 7 21 10 16 10 12 9 13 12 9 11 8 14 4 8 3 15 1 15-3 16-6 14-8 11-9 10-11 8-16 8-18 5-11 2-22 1-15-2-20-6-13-7-10-9-7-7-12-17-10-15-8-10-10-10-12-7-9-3-6-1 12 16 4 10 1 6v15l-4 12-6 10-9 10-10 7-15 6-13 3-8 1h-18l-17-3-16-6-11-6-10-9-8-11-6-13-11-31-9-16-9-12-9-10-11-10-13-9-17-10-20-9 7 6 6 7 7 14 3 14v10l-2 12-5 12-7 12-11 12-7 7-18 11-15 6-20 6-22 4-22 2h-31l-24-2-32-5-36-8-55-15-40-10-31-6-36-4h-29l-24 2-24 4-23 7-25 12-5 3h-2v-163l28 3h44l31-4 23-5 22-7 21-8 19-9 24-14 18-13 13-11 9-9h2l2-4 14-14 7-8 12-13 14-14 14-11 13-8 13-6 16-5 6-1h21l15 4 15 8 12 11 8 9 11 18 14 29 10 24v2l5 2 12 9 12 11 9 10 9 14 7 13 9 4 22 4h19l19-3 20-6 17-8 10-7 10-9 10-12 14-19 11-12 8-8 15-11 5-3h2l-3 12v23l4 14 5 12 24 3 9 3-5 4-8 7-2 3 10 6 17 6 13 2h11l14-2 16-5 13-7 10-9 8-9 9-16 12-28 11-21 10-14 9-11 11-12 8-7 12-10 21-14 21-11 24-9 17-5 20-4z" transform="translate(1058,42)"/>
<path fill="#3ABDF2" d="m0 0h21l24 3 23 5 20 6 28 11 28 14 17 10 19 13 13 10 11 9 12 11 18 18 9 11 11 15 10 16 8 13v314l-9-2-15-6-11-7-10-9-9-10-13-22-11-23-11-26-8-16-7-12-10-14-11-13-16-16-14-11-15-11-21-13-27-14-27-11-21-7-22-6-26-5-23-3-13-1h-49l-12 1-1 1 26 2 26 5 20 6 18 8 15 8 13 9-3 3-23 9-20 6-25 5-22 2h-27l-27-4-23-6-24-9-23-12-17-12-11-10-8-7-14-14-13-17-9-14-11-22-3-7v-3h-2l-1 8-7 18-9 19-12 20-6-1-24-8-24-6-31-5-20-2h-50l-15 1v2l12 1 22 5 21 8 16 8 15 10 14 12 8 8 10 14v3l-30 15-14 6-20 6-24 4-10 1h-27l-26-4-19-5-22-8-19-9-16-10-16-12-13-12-1-3h27l22-3 20-6 19-10 10-8 7-6 10-13 7-15 3-13-1-14-4-11-6-10-8-8-14-7-8-2v-2l14-4 6-1h11l18 3 18 6 21 10 21 13 20 13 16 9 15 7 20 6 6 1h23l15-4 14-7 10-8 8-8 7-11 5-11 2-8v-17l-4-15-8-16-11-12-13-9-8-4v-2l14-3h18l17 4 18 8 14 9 10 8 14 13 9 11 13 16 12 16 9 11 11 12 9 9 14 10 19 10 21 7 25 5 8 1h43l32-4 36-7 38-9h3v-21l-3-23-5-19-7-21-11-24-8-15-13-21-11-15-1-3z" transform="translate(1776,15)"/>
<path fill="#80D2F8" d="m0 0h18l17 4 18 8 14 9 10 8 14 13 9 11 13 16 12 16 9 11 11 12 9 9 14 10 19 10 21 7 25 5 8 1h43l32-4 36-7 38-9h3l-1 13-8 24-9 16-11 13-8 9-40-10-31-5-22-2h-49l-12 1-1 1 26 2 26 5 20 6 18 8 15 8 13 9-3 3-23 9-20 6-25 5-22 2h-27l-27-4-23-6-24-9-23-12-17-12-11-10-8-7-14-14-13-17-9-14-11-22-3-7v-3h-2l-1 8-7 18-9 19-12 20-6-1-24-8-24-6-31-5-20-2h-50l-15 1v2l12 1 22 5 21 8 16 8 15 10 14 12 8 8 10 14v3l-30 15-14 6-20 6-24 4-10 1h-27l-26-4-19-5-22-8-19-9-16-10-16-12-13-12-1-3h27l22-3 20-6 19-10 10-8 7-6 10-13 7-15 3-13-1-14-4-11-6-10-8-8-14-7-8-2v-2l14-4 6-1h11l18 3 18 6 21 10 21 13 20 13 16 9 15 7 20 6 6 1h23l15-4 14-7 10-8 8-8 7-11 5-11 2-8v-17l-4-15-8-16-11-12-13-9-8-4v-2z" transform="translate(1435,48)"/>
<path fill="#81D3F9" d="m0 0h21l15 4 15 8 12 11 8 9 11 18 14 29 10 24-2 1-19-8-14-4-12-2h-25l-17 3-17 5-16 7-18 12-10 8-1 2 11-4h17l14 4 11 6 10 8 8 9 7 14 3 11v13l-2 10-5 13-5 9-8 10-13 13-13 8-15 7-18 5-13 2-12 1h-15l-28-4-23-5-33-10-50-18-28-8-24-5-15-2h-33l-17 3-17 5-14 5v-66l28 3h44l31-4 23-5 22-7 21-8 19-9 24-14 18-13 13-11 9-9h2l2-4 14-14 7-8 12-13 14-14 14-11 13-8 13-6 16-5z" transform="translate(365,69)"/>
<path fill="#80D2F8" d="m0 0h13l-3 3-10 6-14 12-10 12-9 15-7 16-4 16-2 15v14l4 21 6 16 7 12 11 13 11 10 13 8 17 8 3 1 1-2-2 11-8 20-9 15-4 7-5-3-13-10-20-12-20-9-25-8-25-5-19-2h-26l-28 3 4 2 20 7 21 10 16 10 12 9 13 12 9 11 8 14 3 7v3h-23l-20-4-17-6-17-9-14-11-8-8-8-10-8-14v-2h-2v16l-6 14-9 12-12 10-16 8-19 5-8 1h-16l-16-3-15-6-11-7-11-11-8-13-5-17v-13l3-12 7-14 8-10 4-2 10 6 17 6 13 2h11l14-2 16-5 13-7 10-9 8-9 9-16 12-28 11-21 10-14 9-11 11-12 8-7 12-10 21-14 21-11 24-9 17-5 20-4z" transform="translate(1058,42)"/>
<path fill="#3ABDF2" d="m0 0h13l17 3 5 2-5 4-8 7-8 8-9 14-5 13-1 6v13l5 17 9 14 9 9 11 7 15 6 16 3h16l17-3 15-5 11-6 13-11 9-14 4-10 1-16h2l9 16 12 14 10 9 14 9 15 7 20 6 12 2 23 1 1-2 3 15 1 15-3 16-6 14-8 11-9 10-11 8-16 8-18 5-11 2-22 1-15-2-20-6-13-7-10-9-7-7-12-17-10-15-8-10-10-10-12-7-9-3-6-1 12 16 4 10 1 6v15l-4 12-6 10-9 10-10 7-15 6-13 3-8 1h-18l-17-3-16-6-11-6-10-9-8-11-6-13-10-29 11-7 7-6 9-13 6-16 3-19 3-38 4-16 7-11 10-10 16-9 16-5z" transform="translate(720,205)"/>
<path fill="#3ABDF2" d="m0 0 3 1 8 12 8 10 8 8 7 8 12 10 21 14 19 10 24 9 17 5 22 4 9 1h27l24-3 21-5 19-7 19-9 12-7h3l1-2 7 16 5 19v19l-3 15-6 16-7 13-11 14-9 10-11 9-17 10-19 8-17 5-24 4-10 1h-28l-23-4-20-6-16-7-14-9-12-11-9-10-12-18-12-21-14-25-8-12-8-10-10-11 3-7 9-14 8-19 3-11 1-9z" transform="translate(1085,218)"/>
<path fill="#3ABDF2" d="m0 0h2l8 18 11 21 12 16 9 11 16 16 11 9 10 8 13 8 19 10 24 9 23 6 27 4h27l28-3 27-6 23-8 14-6h3l16 16 9 14 7 16 3 12 1 7v11l-3 15-5 12-6 10-7 9-7 7-15 10-16 8-18 6-24 4h-21l-20-4-21-8-14-8-11-9-17-17-10-13-12-18-14-22-10-15-10-13-9-10-17-17-17-13-17-11-21-12-19-9-12-5 5-10 8-13 11-24 5-14z" transform="translate(1449,164)"/>
<path fill="#80D2F8" d="m0 0h2l-3 12v23l4 14 5 13-9 2-20 5-16 8-8 6-9 10-5 10-3 13-3 38-3 19-6 16-7 10-4 5-10 8-5 3h-2l-8-15-10-14-11-12-10-9-13-9-17-10-9-5-1-1-3-26-4-18v-4l17 4 13 2h19l19-3 20-6 17-8 10-7 10-9 10-12 14-19 11-12 8-8 15-11z" transform="translate(714,143)"/>
<path fill="#81D3F9" d="m0 0 5 5 5 11 3 14v10l-2 8-2-1-5-16-3-16z" transform="translate(533,291)"/>
<path fill="#3ABDF2" d="m0 0h9v1l5 1v1h-15l-2-2z" transform="translate(1637,236)"/>
</svg>